<svg xmlns="http://www.w3.org/2000/svg" viewBox="0 0 2500 2500"><defs><style>.cls-1{fill:#fff;}</style></defs><g id="Illustration"><g id="Internal_education" data-name="Internal education"><path d="M996.56,338l1125.5-3c25.18,0,45.84,17.9,44.67,38.68l-12,1061.77c-1,18.33-18.85,32.38-41.06,32.38h-49.39l-10.51-5.35-1413.64,5.16c-25.18,0-46.19-19.75-45-40.54L607.39,370.41c1-18.33,18-34.38,40.25-34.38Z"/><path class="cls-1" d="M949.39,338.72H2072.05c25.12,0,45.74,17.89,44.57,38.67L2105,1435.11c-1,18.33-18.8,32.37-40.95,32.37H594.1c-25.12,0-45.74-17.89-44.57-38.66L561.19,371.1c1-18.33,18.8-32.38,41-32.38Z"/><path d="M2064,1469.7H594.1c-14.28,0-27.65-5.49-36.69-15.06-7-7.43-10.61-16.65-10.09-26L559,371.07c1.12-19.74,19.67-34.56,43.18-34.56h1469.9c14.28,0,27.65,5.49,36.69,15.05,7,7.44,10.61,16.65,10.09,26l-11.65,1057.62C2106.07,1454.88,2087.51,1469.7,2064,1469.7ZM602.15,340.94c-21.12,0-37.78,13-38.75,30.28L551.75,1428.84c-.46,8.18,2.69,16.22,8.87,22.76,8.21,8.69,20.41,13.67,33.48,13.67H2064c21.11,0,37.77-13,38.75-30.28L2114.4,377.37c.46-8.18-2.69-16.23-8.87-22.77-8.21-8.68-20.41-13.66-33.48-13.66Z"/><path d="M554.73,1030.16h0a2.21,2.21,0,0,1-2.2-2.23l3-358.82a2.22,2.22,0,0,1,2.21-2.2h0a2.21,2.21,0,0,1,2.2,2.23L557,1028A2.22,2.22,0,0,1,554.73,1030.16Z"/><path d="M2020.78,458.49H1822.93a15.61,15.61,0,0,1-15.39-15.58,13.79,13.79,0,0,1,13.9-13.9h197.84a15.62,15.62,0,0,1,15.4,15.58A13.81,13.81,0,0,1,2020.78,458.49Z"/><path d="M2017.34,640.91h-85.52a15.62,15.62,0,0,1-15.4-15.58,13.81,13.81,0,0,1,13.9-13.9h85.53A15.61,15.61,0,0,1,2031.24,627,13.8,13.8,0,0,1,2017.34,640.91Z"/><path d="M2019.67,518.33H1760a15.61,15.61,0,0,1-15.39-15.58,13.79,13.79,0,0,1,13.9-13.9h259.63a15.61,15.61,0,0,1,15.39,15.58A13.79,13.79,0,0,1,2019.67,518.33Z"/><path d="M2018.84,578.27H1759.21a15.62,15.62,0,0,1-15.4-15.58,13.81,13.81,0,0,1,13.9-13.9h259.63a15.62,15.62,0,0,1,15.4,15.58A13.81,13.81,0,0,1,2018.84,578.27Z"/><polygon class="cls-1" points="724.77 1246.5 727.72 983.02 633.74 983.02 630.8 1246.5 724.77 1246.5"/><path d="M837.44,1248.71h-94a2.22,2.22,0,0,1-2.21-2.25l6.29-363.89a2.21,2.21,0,0,1,2.21-2.18h94a2.24,2.24,0,0,1,2.21,2.25l-6.3,363.9A2.22,2.22,0,0,1,837.44,1248.71Zm-91.72-4.42h89.55l6.22-359.47H751.93Z"/><path d="M950.12,1248.71h-94a2.22,2.22,0,0,1-1.58-.66,2.27,2.27,0,0,1-.64-1.59l5.23-336.12a2.21,2.21,0,0,1,2.21-2.17h94a2.22,2.22,0,0,1,2.21,2.24l-5.24,336.12A2.21,2.21,0,0,1,950.12,1248.71Zm-91.73-4.42h89.55l5.17-331.7H863.55Z"/><path d="M1062.79,1248.71h-94a2.2,2.2,0,0,1-2.21-2.25l8-460a2.21,2.21,0,0,1,2.21-2.17h94a2.2,2.2,0,0,1,2.21,2.25l-8,460A2.22,2.22,0,0,1,1062.79,1248.71Zm-91.72-4.42h89.55l7.94-455.61H979Z"/><path d="M1175.47,1248.71h-94a2.22,2.22,0,0,1-2.21-2.25l9.15-579.66a2.21,2.21,0,0,1,2.21-2.18h94a2.22,2.22,0,0,1,2.21,2.25l-9.16,579.66A2.22,2.22,0,0,1,1175.47,1248.71Zm-91.73-4.42h89.55L1182.38,669h-89.56Z"/><path d="M1288.14,1248.71h-94a2.22,2.22,0,0,1-2.22-2.26l11.2-543.35a2.2,2.2,0,0,1,2.21-2.16h94a2.22,2.22,0,0,1,2.22,2.26l-11.21,543.34A2.21,2.21,0,0,1,1288.14,1248.71Zm-91.71-4.42H1286l11.12-538.93h-89.56Z"/><path d="M1402.94,1248.71h-94a2.2,2.2,0,0,1-2.22-2.26l13.65-633.08a2.21,2.21,0,0,1,2.21-2.16h94a2.2,2.2,0,0,1,2.21,2.26l-13.66,633.08A2.21,2.21,0,0,1,1402.94,1248.71Zm-91.71-4.42h89.54l13.56-628.66h-89.56Z"/><path d="M1517.71,1248.45h-94a2.22,2.22,0,0,1-1.59-.67,2.26,2.26,0,0,1-.63-1.6L1438,581.77a2.21,2.21,0,0,1,2.21-2.16h94a2.22,2.22,0,0,1,1.59.67,2.19,2.19,0,0,1,.62,1.6l-16.43,664.41A2.21,2.21,0,0,1,1517.71,1248.45ZM1426,1244h89.55l16.33-660h-89.56Z"/><path d="M1632.51,1248.45h-94a2.22,2.22,0,0,1-1.59-.67,2.24,2.24,0,0,1-.63-1.6l11.12-486.47a2.22,2.22,0,0,1,2.22-2.16h94a2.21,2.21,0,0,1,1.58.66,2.18,2.18,0,0,1,.63,1.6l-11.13,486.48A2.21,2.21,0,0,1,1632.51,1248.45ZM1540.8,1244h89.54l11-482h-89.56Z"/><path d="M1747.34,1248.71h-94a2.22,2.22,0,0,1-2.21-2.28l12.23-380a2.22,2.22,0,0,1,2.21-2.14h94a2.21,2.21,0,0,1,1.59.68,2.24,2.24,0,0,1,.63,1.61l-12.24,380A2.22,2.22,0,0,1,1747.34,1248.71Zm-91.69-4.42h89.54l12.1-375.6h-89.56Z"/><path d="M1862.14,1248.71h-94a2.22,2.22,0,0,1-2.21-2.26L1774,916.73a2.21,2.21,0,0,1,2.21-2.15h94a2.24,2.24,0,0,1,1.58.66,2.28,2.28,0,0,1,.63,1.6l-8.1,329.71A2.21,2.21,0,0,1,1862.14,1248.71Zm-91.71-4.42H1860L1868,919h-89.56Z"/><path d="M1976.94,1248.71h-94a2.22,2.22,0,0,1-2.21-2.27l8.74-342.53a2.21,2.21,0,0,1,2.21-2.15h94a2.22,2.22,0,0,1,2.21,2.27l-8.75,342.53A2.21,2.21,0,0,1,1976.94,1248.71Zm-91.71-4.42h89.55l8.64-338.11h-89.56Z"/><path d="M1251.13,648.49a2.21,2.21,0,0,1-1.48-.57l-69.43-62.56a2.21,2.21,0,1,1,3-3.28l67.77,61,166.63-189.29a2.2,2.2,0,0,1,1.53-.74,2.23,2.23,0,0,1,1.61.56l88.42,79.67L1615.77,412.2a2.21,2.21,0,1,1,3.32,2.93L1511,537.93a2.2,2.2,0,0,1-3.14.18l-88.42-79.66L1252.79,647.74a2.2,2.2,0,0,1-1.53.74Z"/><path d="M884.83,854.38a2.24,2.24,0,0,1-1.48-.57l-97.84-88.15a2.21,2.21,0,1,1,3-3.29L884.65,849l232.92-264.6a2.21,2.21,0,0,1,3.33,2.92L886.49,853.63a2.2,2.2,0,0,1-1.53.74Z"/><ellipse cx="786.99" cy="764.01" rx="14.98" ry="16.81" transform="translate(-309.58 788.4) rotate(-45.43)"/><ellipse cx="1251.55" cy="645.63" rx="14.98" ry="16.81" transform="translate(-86.73 1084.05) rotate(-45.43)"/><path d="M1404.84,453.51c-1-8.79,5.26-15.91,14-15.91a18.28,18.28,0,0,1,17.65,15.91c1,8.78-5.26,15.9-14,15.9A18.27,18.27,0,0,1,1404.84,453.51Z"/><path d="M1495.6,535.28c-1-8.79,5.25-15.91,14-15.91a18.28,18.28,0,0,1,17.65,15.91c1,8.78-5.26,15.9-14,15.9A18.27,18.27,0,0,1,1495.6,535.28Z"/><ellipse cx="1614.32" cy="418.39" rx="14.98" ry="16.81" transform="translate(183.31 1274.71) rotate(-45.43)"/><ellipse cx="886.08" cy="850.32" rx="14.98" ry="16.81" transform="translate(-341.52 884.73) rotate(-45.43)"/><ellipse cx="1148.04" cy="554.53" rx="14.98" ry="16.81" transform="translate(-52.7 983.15) rotate(-45.43)"/><path d="M1058.47,1381.93H639.83c-9.67,0-18-7.06-17.89-15.13l.6-39.64c.11-6.9,6.45-12.12,14.71-12.12h418.64c9.67,0,18,7.06,17.89,15.13l-.61,39.64C1073.07,1376.71,1066.73,1381.93,1058.47,1381.93Z"/><path d="M668.63,716.4c19.32-1,39.63,17.61,35,45.94-3.79,23.16-28.68,28.1-41,39.57-39.83,37.11-53,158.58-111.25,190.3-46.47,25.31-128.7,15.76-170.65-41.74-39.89-54.67-43.45-131.89,5.13-164.81,43.68-29.59,69.13,11.53,115.34-15.78,45.56-26.93,36.34-57.64,64.24-68.12C603.59,687.42,613.88,719.25,668.63,716.4Z"/><path class="cls-1" d="M738.8,1018.57c20.44,125.22,22.82,127.07,25.58,140.18,0,0,8.11,36.88,10.36,72.41,2,30.82-3.84,215.95-99.53,256.72-34.56,14.72-44.57-12.34-118.15-9.4-75.4,3-90.69,29.84-123.59,20.44-71.2-20.35-94.45-173.12-90.53-267.52,3.19-76.88,41.45-149.48,118-294.68,11.65-22.12,30.31-55.89,60.37-60.19,13.78-2,19.29.14,74.6,15.33,60.18,16.52,75.45-1.05,101.28,15.22C723.86,923.9,728.56,955.89,738.8,1018.57Z"/><path d="M447.18,1503.13a51.42,51.42,0,0,1-14.32-2.09c-41.07-11.73-63.43-65-75-107.53-13-47.94-19.4-108.58-17.17-162.2C343.94,1153.92,382.38,1081,459,935.69c10.46-19.84,29.92-56.76,62-61.35,12.94-1.85,18.44-.34,61.2,11.45l14.3,3.93c30.19,8.29,48.64,7.92,63.48,7.62,14.57-.3,25.09-.51,38.39,7.87,27,17,32,47.77,42,109.1l.64,3.9c17,104.21,21.46,122.71,24.11,133.77.53,2.21,1,4.1,1.46,6.32.07.35,8.17,37.43,10.4,72.72,2.64,41.71-7,218.9-100.88,258.89-18.11,7.72-29.91,4.37-46.25-.28s-36.51-10.39-72.67-8.94c-38.29,1.53-60.5,9.1-78.35,15.18C467,1499.88,457.5,1503.13,447.18,1503.13Zm81.78-625a50,50,0,0,0-7.36.6c-29.86,4.27-48.64,39.89-58.72,59-76.28,144.71-114.56,217.35-117.73,293.74-4.09,98.44,20.8,245.83,88.93,265.3,15.39,4.4,26.49.62,43.29-5.11,17.17-5.85,40.68-13.86,79.6-15.41,36.89-1.48,58.37,4.64,74.07,9.1,16,4.56,26.62,7.58,43.3.47,49.65-21.15,73.68-82.67,85.1-130.56,12.5-52.46,14.22-106.18,13.09-124-2.21-34.94-10.23-71.7-10.31-72.07-.46-2.19-.91-4-1.43-6.22-2.67-11.11-7.13-29.71-24.18-134.09L736,1015c-9.79-60-14.71-90.14-40-106.07-12.18-7.67-21.63-7.48-35.94-7.19-15.12.31-33.93.69-64.74-7.77L581,890.05C548.16,881,537.71,878.12,529,878.12Z"/><polygon class="cls-1" points="628.97 1743.66 628.97 1804.22 599.83 1802.45 594.09 1743.66 628.97 1743.66"/><path d="M629,1806.43h-.14l-29.14-1.77a2.22,2.22,0,0,1-2.06-2l-5.74-58.78a2.24,2.24,0,0,1,.56-1.7,2.2,2.2,0,0,1,1.64-.73H629a2.21,2.21,0,0,1,2.21,2.21v60.56a2.22,2.22,0,0,1-2.21,2.21Zm-27.12-6.08,24.9,1.52v-56H596.53Z"/><path class="cls-1" d="M595.46,1879.73a198,198,0,0,0,53.91-1.8A12.67,12.67,0,0,0,659.44,1862c-5.67-20.19-16.88-57.8-25.81-75.82l-5.37,9.83-4.3-10.37a4.51,4.51,0,0,0-3.45-2.17l-15.46.09c-4.59,0-4.93,2.49-5.54,4.39l-3.06,8.06-4.25-10.92-8,80.79A12.65,12.65,0,0,0,595.46,1879.73Z"/><path d="M615.71,1883a193.57,193.57,0,0,1-20.49-1.07,14.89,14.89,0,0,1-13.17-16.24l8-80.8a2.21,2.21,0,0,1,4.26-.58l2.16,5.55,1.12-3c.57-1.92,1.64-5.49,7.47-5.49h0l15.44-.09a6.79,6.79,0,0,1,5.35,3.24,1.59,1.59,0,0,1,.15.29l2.53,6.11,3.16-5.78a2.19,2.19,0,0,1,2-1.15,2.23,2.23,0,0,1,1.94,1.23c9.44,19.06,21.3,59.64,26,76.2a14.87,14.87,0,0,1-11.83,18.69A201,201,0,0,1,615.71,1883Zm-20-5.47a195.12,195.12,0,0,0,53.3-1.78,10.49,10.49,0,0,0,7.1-4.74,10.3,10.3,0,0,0,1.23-8.39c-4.33-15.38-14.89-51.59-23.84-71.53l-3.28,6a2.22,2.22,0,0,1-4-.21l-4.22-10.2a2.33,2.33,0,0,0-1.68-1l-15.25.1c-2.6,0-2.79.68-3.28,2.34l-.16.51-3.11,8.17a2.2,2.2,0,0,1-2.06,1.43h0a2.21,2.21,0,0,1-2.07-1.41l-.88-2.28-7,71.57A10.45,10.45,0,0,0,595.69,1877.53Z"/><path d="M619.09,1869.28a95.3,95.3,0,0,1-26.42-3.43,2.21,2.21,0,0,1,1.33-4.22,101.17,101.17,0,0,0,50.64,0,2.21,2.21,0,0,1,1.13,4.28A105.09,105.09,0,0,1,619.09,1869.28Z"/><path d="M633.63,1837.82H607a2.21,2.21,0,0,1,0-4.42h26.59a2.21,2.21,0,1,1,0,4.42Z"/><polygon class="cls-1" points="414.63 1711.62 406.02 1784.63 378.71 1783.68 378.71 1711.62 414.63 1711.62"/><path d="M406,1786.85h-.08l-27.31-.95a2.23,2.23,0,0,1-2.14-2.22v-72.06a2.21,2.21,0,0,1,2.22-2.21h35.92a2.22,2.22,0,0,1,2.2,2.47l-8.62,73A2.21,2.21,0,0,1,406,1786.85Zm-25.1-5.3,23.14.8,8.08-68.52H380.92Z"/><path class="cls-1" d="M412.51,1767.21s3.52,32.43,2.43,45.47c-.78,9.33-13.58,37.52-20.81,52.8-3,6.29-8.63,10.32-14.91,10.59-7.66.33-18.32.72-26.91.73-11.83,0-20-13.43-15.74-26a194.88,194.88,0,0,1,19.81-41.49c7.33-11.62,18-43.2,18-43.2h22.26l4.37,18.48Z"/><path d="M352.29,1879a18.24,18.24,0,0,1-14.82-7.92,23.21,23.21,0,0,1-3-21,196.71,196.71,0,0,1,20-42c7.11-11.27,17.7-42.42,17.81-42.73a2.2,2.2,0,0,1,2.09-1.51h22.26a2.22,2.22,0,0,1,2.15,1.71l3.19,13.49,8.66-13.14a2.21,2.21,0,0,1,4,1c.15,1.33,3.53,32.79,2.44,45.89-.76,9.14-11.85,34.18-21,53.57-3.32,7-9.76,11.55-16.83,11.85-7.53.33-18.32.72-27,.73ZM376,1768.36c-2.25,6.5-11.19,31.79-17.73,42.17a191.78,191.78,0,0,0-19.59,41,18.76,18.76,0,0,0,2.39,17,13.86,13.86,0,0,0,11.23,6.09h0c8.61,0,19.34-.4,26.82-.73,5.42-.23,10.41-3.81,13-9.32,12.56-26.56,20.06-45.52,20.61-52,.77-9.27-.86-28.85-1.81-38.87l-8.05,12.21a2.21,2.21,0,0,1-4-.7l-4-16.78Z"/><path d="M369.27,1865.11h0l-19.22,0a2.22,2.22,0,1,1,0-4.43h0l19.21,0h0c6.18,0,12.92-8.9,15-12.33l12.54-24.26a2.21,2.21,0,0,1,3.93,2l-12.61,24.39C387.69,1851.24,379.21,1865.11,369.27,1865.11Z"/><path d="M380,1838.73H355.62a2.22,2.22,0,0,1,0-4.43H380a2.22,2.22,0,0,1,0,4.43Z"/><path d="M675.78,1138.23s-2.91,222.83-12.27,367.9-27.83,256-27.83,256-31.78,11.42-52.65,5.44c0,0-17.27-127.25-21.2-170.27s6.5-64.35,7.38-99.56S554,1307.09,554,1307.09s-119.81,351.38-133.51,429c0,0-29,4.92-49.46-6.26,0,0-.64-138.18,2.26-159.53,5.38-39.56,36.27-78.5,41.82-120.51s8.77-147.47,24.05-210.71,45.27-134.3,45.27-134.3Z"/><path class="cls-1" d="M477.81,1221a2.21,2.21,0,0,1-.84-4.26,86.92,86.92,0,0,0,38-30.46,2.21,2.21,0,1,1,3.59,2.58,91.16,91.16,0,0,1-40,32A2.29,2.29,0,0,1,477.81,1221Z"/><path class="cls-1" d="M658.53,1220.11a2.22,2.22,0,0,1-1.52-.6c-13.88-13.08-16-21.38-18.91-32.88l-.8-3.12a2.21,2.21,0,1,1,4.28-1.12l.81,3.15c2.83,11.17,4.71,18.55,17.65,30.75a2.21,2.21,0,0,1-1.51,3.82Z"/><path class="cls-1" d="M1002.77,978.42c-8.36,1.65-24.14,9.89-26.18,12C960.52,1007.17,951,981.1,951,981.1s28.93-17.51,45.3-20C1027.89,956.2,1020.26,975,1002.77,978.42Z"/><path d="M966.1,998.25a11.42,11.42,0,0,1-2.39-.25c-9.52-2-14.56-15.57-14.77-16.15a2.22,2.22,0,0,1,.93-2.65c1.2-.72,29.5-17.76,46.11-20.32,20.16-3.11,23.56,3.43,24.08,6.39,1.1,6.28-6.62,13.29-16.86,15.32-8.11,1.6-23.48,9.79-25,11.38C974.17,996.15,970.12,998.25,966.1,998.25ZM953.79,982c1.79,3.94,5.77,10.58,10.84,11.64,3.19.67,6.68-.93,10.37-4.77,2.42-2.53,18.8-11,27.34-12.65,8.8-1.74,13.87-7.3,13.36-10.21-.37-2.07-4.78-5-19-2.79C983.09,965.34,960.09,978.35,953.79,982Z"/><path d="M948.63,991.88a2.21,2.21,0,0,1-1.27-4L1172.41,830a2.21,2.21,0,1,1,2.55,3.62L949.9,991.48A2.22,2.22,0,0,1,948.63,991.88Z"/><path class="cls-1" d="M976.24,954.22c-4.66,4.83-13.5,9.22-20.07,10.59a37.53,37.53,0,0,1-8.88.85c-23.51-.88-17.94,32.36-68.11,40.22-1.76.28-4.3,30.53-4.22,38.4,20.52-8.73,47.66-28,60.47-24.42,23.61,6.56,31.41-5.63,36.36-11.25,13-14.75-4.56-29.17-4.56-29.17s3-.52,12.32-5.58C993.81,966.14,997,932.7,976.24,954.22Z"/><path d="M875,1046.49a2.21,2.21,0,0,1-2.21-2.19c0-4,.57-13.59,1.43-22.28,1.75-17.87,2.85-18,4.65-18.32,27.93-4.38,37.92-16.67,45.94-26.55,6.16-7.58,11.45-14.13,22.6-13.7a34.72,34.72,0,0,0,8.35-.81c6.53-1.36,14.85-5.73,18.92-9.95,6.11-6.33,10.84-8.77,14.46-7.46,1.38.5,3.74,2,4.09,6.68.52,6.85-4,19.25-12.59,23.9a102.39,102.39,0,0,1-9.27,4.54c2.81,3.06,6.86,8.55,7.4,15.19.42,5.19-1.36,10.08-5.28,14.54-.38.42-.77.89-1.19,1.39-5,5.92-14.29,17-37.43,10.53-7.9-2.2-23.25,6-38.09,13.88-7.06,3.76-14.35,7.64-20.91,10.43A2.19,2.19,0,0,1,875,1046.49Zm5.64-38.6c-1.22,4.31-3,23.11-3.37,33,5.56-2.55,11.58-5.76,17.43-8.87,16.32-8.7,31.74-16.92,41.36-14.25,20.4,5.67,27.9-3.23,32.86-9.12.44-.52.85-1,1.25-1.46,3.1-3.52,4.51-7.31,4.19-11.25-.67-8.23-8.42-14.68-8.5-14.75a2.22,2.22,0,0,1,1-3.89s3-.66,11.65-5.34c6.9-3.74,10.7-14.15,10.28-19.67-.11-1.54-.57-2.64-1.18-2.86-.27-.1-2.89-.76-9.77,6.37-4.69,4.85-13.81,9.68-21.21,11.22a39.41,39.41,0,0,1-9.42.89c-9-.34-13.15,4.87-19,12.06C920.25,989.73,909.4,1003.1,880.6,1007.89Z"/><path d="M949.1,1006.13a2,2,0,0,1-.59-.08c-5.18-1.43-7.22-4.75-8-7.29-1.9-6,1.19-13.52,5.11-18.27s8.16-7,12.85-6.89c8.54.15,14.91,8.32,15.18,8.67a2.21,2.21,0,0,1-3.51,2.7c-.05-.07-5.36-6.85-11.76-6.94-3.25,0-6.43,1.72-9.35,5.27-3.73,4.53-5.5,10.34-4.3,14.12.7,2.21,2.33,3.63,5,4.37a2.21,2.21,0,0,1-.59,4.34Z"/><path class="cls-1" d="M697.57,892S626.08,881.75,555.7,879.7c0,0-92.54,247.16-92.54,262.7s44.33,50.79,88.27,22.74c73.3-46.8,119.09-30.84,155.22-22.4C760.79,1155.39,697.57,892,697.57,892Z"/><path d="M516.91,1177.86a69.15,69.15,0,0,1-32.58-8.47c-13.54-7.42-23.37-18.77-23.38-27,0-15.76,88.89-253.36,92.68-263.47a2.2,2.2,0,0,1,2.13-1.44c69.7,2,141.41,12.2,142.13,12.3a2.21,2.21,0,0,1,1.83,1.67c2.14,8.9,51.93,218.22,20.71,249.63-3.82,3.85-8.62,5.12-14.28,3.8-2.51-.58-5.07-1.21-7.67-1.84-35-8.51-78.44-19.1-145.86,24C539.88,1175.13,527.61,1177.86,516.91,1177.86ZM557.21,882c-26.09,69.73-91.84,248.11-91.83,260.44,0,5.68,7.88,15.88,21.08,23.11,9.75,5.34,35.49,15.82,63.78-2.24,69-44.06,113.52-33.23,149.28-24.52,2.6.63,5.14,1.25,7.64,1.83,4.12,1,7.43.11,10.14-2.61,28.2-28.37-17.06-225-21.53-244C685.22,892.51,620.6,883.92,557.21,882Z"/><path class="cls-1" d="M923,1030c-8.9,10.81-25.21,32.86-63,45.13-75.63,24.55-122.32-25.29-122.32-25.29L744.17,1199s-36.54,21.65-36.54,19.73-16-332.77-16-332.77,29.49.48,42.64,19.2,62.93,96.07,120.16,97c26,.43,38.62-10.34,46.85-13.29Z"/><path d="M702.68,1117a2.21,2.21,0,0,1-2.21-2.11c-4.69-97.63-11-228.76-11-228.76a2.21,2.21,0,0,1,2.24-2.32c1.25,0,30.78.72,44.42,20.14.8,1.12,1.72,2.46,2.77,4,15.57,22.57,63,91.23,115.61,92.09,19.38.31,30.82-5.6,39.18-9.92a59.89,59.89,0,0,1,6.9-3.24,2.2,2.2,0,0,1,2.7,1L925,1029a2.22,2.22,0,0,1-.25,2.44l-1.56,1.91c-9.14,11.23-26.17,32.14-62.49,43.93a134.41,134.41,0,0,1-41.67,6.84,122.8,122.8,0,0,1-78.89-29l2.17,49.69a2.21,2.21,0,0,1-2.11,2.31,2.25,2.25,0,0,1-2.31-2.12l-2.4-55.06a2.21,2.21,0,0,1,3.82-1.61c.46.48,46.69,48.5,120,24.7,35.08-11.39,51.57-31.64,60.43-42.52l.64-.78-20.07-38c-1.37.61-2.9,1.4-4.59,2.28-8.29,4.28-20.82,10.75-41.28,10.41-54.93-.9-103.29-71-119.18-94-1-1.51-2-2.84-2.75-4-10.25-14.6-31.42-17.54-38.51-18.12.89,18.42,6.59,136.53,10.91,226.31a2.21,2.21,0,0,1-2.11,2.32Z"/><path class="cls-1" d="M786.88,940.54H648.63a9.82,9.82,0,0,0-9.22,8.17L608,1142.41c-.74,4.52,2.21,8.18,6.57,8.18H752.86a9.83,9.83,0,0,0,9.22-8.18l31.38-193.7C794.19,944.19,791.25,940.54,786.88,940.54Z"/><path d="M752.86,1152.8H614.6a8.72,8.72,0,0,1-6.77-3,9.49,9.49,0,0,1-2-7.7l31.38-193.71a12,12,0,0,1,11.41-10H786.88a8.71,8.71,0,0,1,6.77,3,9.49,9.49,0,0,1,2,7.7l-31.38,193.71A12,12,0,0,1,752.86,1152.8Zm-104.23-210a7.65,7.65,0,0,0-7,6.31l-31.38,193.71a5,5,0,0,0,1,4.12,4.34,4.34,0,0,0,3.4,1.48H752.86a7.64,7.64,0,0,0,7-6.31l31.38-193.71a5,5,0,0,0-1-4.12,4.33,4.33,0,0,0-3.4-1.48Z"/><path class="cls-1" d="M628.11,1018.92l-2.3,14.64a10.51,10.51,0,0,0,12.38,10.6l36-6.55a8.77,8.77,0,0,1,10.37,9c-.19,3.21-1.63,6.94-5.62,10.82-1.86,1.81-33.84,26.16-58.4,21.74-1.07-.19-24.09,12.75-25,12.12-3.86-2.76-6.55-11.59-7.41-19-.07-.64,19.07-11.43,21-17.35,2-6.12.38-10.58,2.8-21C614.85,1021.65,628.11,1018.92,628.11,1018.92Z"/><path d="M595.55,1093.61a1.91,1.91,0,0,1-1.22-.5c-4.79-3.42-7.48-13.22-8.33-20.57-.17-1.53.37-1.89,4.59-4.66,4.6-3,15.35-10.09,16.51-13.63a28.66,28.66,0,0,0,1.12-8,64.81,64.81,0,0,1,1.63-12.83c3.13-13.48,17.22-16.53,17.82-16.65a2.19,2.19,0,0,1,2,.56,2.24,2.24,0,0,1,.66,1.95L628,1033.75a8.3,8.3,0,0,0,9.78,8.23l36-6.55a11,11,0,0,1,9.31,2.6,10.77,10.77,0,0,1,3.66,8.73c-.26,4.34-2.37,8.46-6.29,12.27-.28.28-33.21,26.81-59.83,22.43-1.44.58-6.14,3-10,5C600,1092.12,597,1093.61,595.55,1093.61Zm-5-20.39c1,6.83,3.23,13.14,5.63,15.65,2.31-1,8.33-4.11,12.49-6.29,11.08-5.79,11.24-5.76,12.3-5.56,22.83,4.11,53.69-18.47,56.47-21.16,3.1-3,4.76-6.16,4.95-9.35a6.37,6.37,0,0,0-2.17-5.16,6.64,6.64,0,0,0-5.59-1.57l-36,6.55a12.72,12.72,0,0,1-15-12.82,2.58,2.58,0,0,1,0-.29l1.74-11.09c-3.71,1.53-9.53,5-11.21,12.28a60.21,60.21,0,0,0-1.52,12,32,32,0,0,1-1.34,9.18c-1.51,4.63-9.86,10.42-18.28,16C592.15,1072.15,591.19,1072.77,590.55,1073.22Z"/><path class="cls-1" d="M596,1062c-15.88,2.58-18.08,10.4-37.78,1.74-44.4-19.51-36-87.66-28.45-121.59,1.55-7,3.49-13.77,5.59-20.16,3.87-11.77-43.8-22.66-52.24-13.59a206.61,206.61,0,0,0-30.26,41.86c-27.67,50.67-36.67,164.07,55.85,184.56,48.73,10.79,87.47-29.11,101.42-46.29C613.29,1084.58,600.51,1061.24,596,1062Z"/><path d="M525.43,1138.86a79.17,79.17,0,0,1-17.22-1.9c-62.52-13.85-74.63-67.34-76.29-98a2.21,2.21,0,0,1,4.42-.23c1.59,29.4,13.16,80.7,72.82,93.91,47.65,10.55,85.27-28.32,99.23-45.52.24-.61-.18-4.13-3.36-10.56-3.73-7.54-7.61-11.91-8.86-12.37a59.62,59.62,0,0,0-11.15,3.12c-7.42,2.67-13.28,4.78-27.72-1.56-41.22-18.12-38.09-76.42-32.55-109.56a2.22,2.22,0,1,1,4.37.73c-5.33,31.87-8.52,87.87,30,104.78,12.83,5.63,17.45,4,24.44,1.44a62.72,62.72,0,0,1,12.1-3.34c3-.5,6.8,3.15,11.25,10.83,2,3.47,8.32,15.13,5,19.27C599.05,1105.64,567.14,1138.86,525.43,1138.86Z"/><path class="cls-1" d="M632.1,794.62a2.57,2.57,0,0,0,3.73-1.25c2.88-7,7.48-20.71,16.89-22.88,12.06-2.78,31.59-6.38,33.27,3.16,1.48,8.36-.26,22.79,8.54,33.24.85,1,.12,2.61-.92,3.4L688.07,815c-1.17.88-2.17,3.86-2.31,5.33-.45,4.54-5.1,20.32-6.67,21.57-3.06,2.42-18.32,1.48-18.32,1.48l-8.15,35.94A2.94,2.94,0,0,0,654.7,883l14.56,4.95s-11.69,16.39-48.21,13.92c-23.35-1.58-40.44-18-40.44-18s45.39-6.45,51.52-60.11a3.32,3.32,0,0,0-1.32-3c-3.62-2.72-13.37-10.74-11.66-18.87C621,793.14,627.41,791.82,632.1,794.62Z"/><path d="M628.42,904.29c-2.39,0-4.89-.09-7.52-.26-23.88-1.62-41.1-18-41.82-18.65a2.21,2.21,0,0,1,1.22-3.78c1.78-.26,43.78-6.92,49.63-58.17a1.11,1.11,0,0,0-.45-1c-5.46-4.11-14.34-12.3-12.5-21.09,1.25-5.92,4.31-8.39,6.66-9.42a10.44,10.44,0,0,1,9.6.83h0a.39.39,0,0,0,.32,0,.34.34,0,0,0,.22-.22l.79-2c3.16-8,7.93-20,17.65-22.25,17-3.93,27-4.13,32.25-.66a8.22,8.22,0,0,1,3.7,5.59,73.3,73.3,0,0,1,.75,7.51c.52,7.76,1.18,17.42,7.31,24.7a3.88,3.88,0,0,1,.86,2.94,5.54,5.54,0,0,1-2.15,3.64l-5.45,4.6a8.32,8.32,0,0,0-1.53,3.86c-.36,3.62-4.92,21-7.5,23.08-3,2.39-12.93,2.28-17.94,2.06l-7.74,34.12a.92.92,0,0,0,0,.71.69.69,0,0,0,.44.33l14.72,5a2.21,2.21,0,0,1,1.09,3.38C670.59,889.85,659.9,904.29,628.42,904.29Zm-43-19.35c5.91,4.62,19.32,13.56,35.79,14.67,26.51,1.8,39.37-6.54,44.08-10.72L654,885.05a5,5,0,0,1-3-2.38,5.17,5.17,0,0,1-.47-4l8.12-35.82a2.21,2.21,0,0,1,2.29-1.72c7.48.46,15.11,0,16.69-.93,1.34-2,5.51-15.6,5.95-20.12.17-1.69,1.27-5.44,3.18-6.89l5.45-4.59a1.66,1.66,0,0,0,.45-.53c-6.86-8.34-7.56-18.68-8.12-27-.18-2.6-.35-5.06-.69-7a3.89,3.89,0,0,0-1.8-2.67c-4-2.64-13.67-2.21-28.8,1.28-7.46,1.73-11.72,12.46-14.54,19.57l-.8,2a4.8,4.8,0,0,1-6.91,2.31,6.09,6.09,0,0,0-5.55-.58c-2,.88-3.43,3-4.11,6.28-1.39,6.63,7.11,13.84,10.83,16.64a5.59,5.59,0,0,1,2.19,5.07C629.24,868.5,597.33,881.58,585.41,884.94Zm92.12-44.64Z"/><path class="cls-1" d="M1563.18,1770.67l-187.64,168.79-519.72-1.6a.54.54,0,0,1-.43-.93l187-168.18,520.09.34A.92.92,0,0,1,1563.18,1770.67Z"/><path d="M1375.54,1941.67h0l-519.72-1.59a2.8,2.8,0,0,1-2.63-1.8,2.72,2.72,0,0,1,.73-3l187-168.18a2.22,2.22,0,0,1,1.48-.57l520.1.35a3.19,3.19,0,0,1,3,2,3.07,3.07,0,0,1-.83,3.4L1377,1941.11A2.25,2.25,0,0,1,1375.54,1941.67Zm-515.44-6,514.59,1.59,184.48-166-516-.34ZM1561.7,1769Z"/><path class="cls-1" d="M1564,1769.24v224.1l-187,168.35a.85.85,0,0,1-1.43-.53v-221.7S1561.33,1769.36,1564,1769.24Z"/><path d="M1376.38,2164.13a3.2,3.2,0,0,1-1.28-.27,2.94,2.94,0,0,1-1.77-2.7v-221.7a2.23,2.23,0,0,1,.71-1.63c186.38-170.64,188.83-170.75,189.88-170.8a2.21,2.21,0,0,1,2.31,2.21v224.1a2.24,2.24,0,0,1-.73,1.65l-187,168.35A3.1,3.1,0,0,1,1376.38,2164.13Zm1.37-223.7V2158l184.06-165.65V1773.75C1540.62,1791.66,1424.89,1897.28,1377.75,1940.43Z"/><path class="cls-1" d="M1375.54,2162.79l-520.39-1.58c1.11,1,.4-223,.4-223l520,1.24Z"/><path d="M1375.54,2165h0l-520.29-1.58a2.22,2.22,0,0,1-2.2-2.88c.8-8.07.48-162.82.29-222.31a2.21,2.21,0,0,1,.65-1.57,2.36,2.36,0,0,1,1.57-.65l520,1.24a2.21,2.21,0,0,1,2.21,2.21v223.33a2.2,2.2,0,0,1-2.21,2.21Zm-518-6,515.83,1.57v-218.9l-515.57-1.23c0,10.88.18,60,.22,109.09,0,32.34,0,58.12-.08,76.64C857.81,2145.69,857.78,2154.71,857.5,2159Z"/><path d="M1213.89,2070.16a2.22,2.22,0,0,1-1.48-3.86l47.37-42.61a2.21,2.21,0,1,1,3,3.29l-47.37,42.61A2.2,2.2,0,0,1,1213.89,2070.16Z"/><path class="cls-1" d="M2161.56,1554.15l-189.4,170.37-512.83-1.59a.76.76,0,0,1-.6-1.31l186.56-167.81Z"/><path d="M1972.16,1726.73h0l-512.83-1.59a3,3,0,0,1-2.87-1.94,2.94,2.94,0,0,1,.79-3.23l186.56-167.81a2.21,2.21,0,0,1,1.48-.56l516.27.34a2.21,2.21,0,0,1,1.48,3.86l-189.4,170.37A2.21,2.21,0,0,1,1972.16,1726.73Zm-509.13-6,508.29,1.58,184.48-166-509.67-.34Z"/><path class="cls-1" d="M2161.56,1554.31v436.06L1975,2158.25a1.16,1.16,0,0,1-2-.72v-433S2158.87,1554.43,2161.56,1554.31Z"/><path d="M1974.23,2160.77a3.55,3.55,0,0,1-1.42-.3,3.2,3.2,0,0,1-1.94-2.94v-433a2.2,2.2,0,0,1,.72-1.63c186.38-170.64,188.82-170.75,189.87-170.79a2.21,2.21,0,0,1,2.31,2.21v436.06a2.18,2.18,0,0,1-.73,1.64L1976.51,2159.9A3.42,3.42,0,0,1,1974.23,2160.77Zm1.06-435.27V2155l184.06-165.66V1558.81C2138.17,1576.73,2022.43,1682.34,1975.29,1725.5Z"/><path class="cls-1" d="M1973.08,2158.57l-515-1.58c1.11,1,.39-433.7.39-433.7l514.61,1.23Z"/><path d="M1973.08,2160.78h0l-514.93-1.58a2.14,2.14,0,0,1-1.54-.57,2.2,2.2,0,0,1-.67-2.18c.81-9.81.57-287.09.33-433.16a2.22,2.22,0,0,1,2.21-2.22h0l514.61,1.24a2.2,2.2,0,0,1,2.2,2.21v434.05a2.22,2.22,0,0,1-2.21,2.21Zm-512.69-6,510.48,1.57V1726.73l-510.18-1.23c0,16,.18,115.17.21,214.45,0,62.92,0,113.07-.08,149.07,0,20.35-.11,37.31-.19,49.21C1460.57,2147,1460.53,2151.94,1460.39,2154.78Z"/><path d="M1677.2,1989.51a2.22,2.22,0,0,1-1.49-3.86l149.13-134.14a2.21,2.21,0,1,1,3,3.29l-149.13,134.14A2.19,2.19,0,0,1,1677.2,1989.51Z"/><path d="M1671.93,1888.51a2.22,2.22,0,0,1-1.48-3.86l47.37-42.61a2.21,2.21,0,1,1,3,3.29l-47.37,42.61A2.2,2.2,0,0,1,1671.93,1888.51Z"/><path class="cls-1" d="M2075.73,1116.45H1516.41a13.89,13.89,0,0,0-13.82,15.3L1556,1658.1a3.86,3.86,0,0,0,3.93,3.47l28.89-.61a2.1,2.1,0,0,0,2-2.24l-35.16-489.42a13.89,13.89,0,0,1,13.88-14.89l453.94.57a13.9,13.9,0,0,1,13.84,15L2000,1656.84a4.42,4.42,0,0,0,4.29,4.77l25.22.69a3.48,3.48,0,0,0,3.54-3.09l56.5-527.38A13.89,13.89,0,0,0,2075.73,1116.45Z"/><path d="M2029.59,1664.51h-.16l-25.21-.69a6.64,6.64,0,0,1-6.44-7.15l37.35-486.9a11.68,11.68,0,0,0-11.63-12.57l-453.94-.58h0a11.69,11.69,0,0,0-11.65,12.52l35.16,489.43a4.29,4.29,0,0,1-4.2,4.6l-28.89.62a6.11,6.11,0,0,1-6.18-5.47L1500.38,1132a16.12,16.12,0,0,1,16-17.73h559.32a16.1,16.1,0,0,1,16,17.82l-56.5,527.38A5.72,5.72,0,0,1,2029.59,1664.51Zm-460-512.32h0l453.94.58a16.1,16.1,0,0,1,16,17.34L2002.19,1657a2.25,2.25,0,0,0,.57,1.66,2.22,2.22,0,0,0,1.58.73l25.22.69a1.24,1.24,0,0,0,1.28-1.12l56.5-527.38a11.68,11.68,0,0,0-11.61-12.93H1516.41a11.68,11.68,0,0,0-11.62,12.87l53.39,526.34a1.73,1.73,0,0,0,1.68,1.49l28.89-.61-35.27-489.29a16.11,16.11,0,0,1,16.06-17.27Z"/><path class="cls-1" d="M1974.4,1147.19a2.22,2.22,0,0,1-2.21-2.22v-23.8a2.21,2.21,0,1,1,4.42,0V1145A2.22,2.22,0,0,1,1974.4,1147.19Z"/><path class="cls-1" d="M1694.8,1566.62l-10.88,54.21a3.18,3.18,0,0,1-3.68,2.66l-31.81-8.09a2.81,2.81,0,0,1-1.89-3.38l9.17-48.44Z"/><path d="M1680.87,1625.79a4.69,4.69,0,0,1-1.17-.15l-31.82-8.09a5,5,0,0,1-3.51-5.94l9.17-48.44a2.23,2.23,0,0,1,2.34-1.8l39.09,3a2.22,2.22,0,0,1,2,2.64l-10.89,54.21a5.72,5.72,0,0,1-2.54,3.73A5,5,0,0,1,1680.87,1625.79Zm-23.36-59.85-8.79,46.49c-.08.43.07.78.25.83l31.82,8.09a.61.61,0,0,0,.4-.1,1.41,1.41,0,0,0,.56-.86l10.39-51.76Z"/><polygon class="cls-1" points="1797.37 1520.12 1824.18 1564.18 1793.54 1580.42 1765.97 1540.99 1797.37 1520.12"/><path d="M1793.55,1582.63a2.21,2.21,0,0,1-1.82-.94l-27.57-39.43a2.23,2.23,0,0,1-.36-1.68,2.18,2.18,0,0,1,1-1.43l31.4-20.88a2.21,2.21,0,0,1,1.7-.31,2.18,2.18,0,0,1,1.41,1l26.81,44.06a2.17,2.17,0,0,1,.24,1.74,2.2,2.2,0,0,1-1.09,1.37l-30.64,16.23A2.13,2.13,0,0,1,1793.55,1582.63Zm-24.47-41.05,25.16,36,26.83-14.22-24.39-40.1Z"/><path class="cls-1" d="M1695.25,1597c2.17,7.8,6.76,29.76,8.68,43a16.56,16.56,0,0,1-12,18.31c-22.68,6.13-76.88,5.86-122,7.86-3.09.13-8.79-1.38-11.32-8.86-8.58-25.4,38.84-33.26,85.72-59.08a2.72,2.72,0,0,1,2.9.15c.54.39,1.22.86,2,1.37,8.16,5.19,21.71,5.2,30,.22l9.36-5.63A4.52,4.52,0,0,1,1695.25,1597Z"/><path d="M1569.49,1668.37c-4.5,0-10.43-2.69-13-10.37-6.64-19.63,16.46-29.63,45.71-42.29,12.61-5.47,26.91-11.66,41-19.44a4.89,4.89,0,0,1,5.25.29c.52.37,1.17.81,1.94,1.3,7.37,4.69,20,4.78,27.66.19l9.36-5.62a6.62,6.62,0,0,1,5.95-.49,6.72,6.72,0,0,1,4,4.47c2.26,8.09,6.83,30.08,8.74,43.25a18.74,18.74,0,0,1-13.67,20.76c-17.11,4.63-50.93,5.64-86.73,6.71-11.9.35-24.2.72-35.74,1.23Zm76.13-68.3a.56.56,0,0,0-.27.08c-14.31,7.88-28.71,14.11-41.42,19.62-31,13.44-48.36,21.78-43.27,36.81,2.46,7.28,8,7.4,9.12,7.36,11.58-.51,23.9-.88,35.81-1.24,34-1,69.09-2.06,85.71-6.55a14.31,14.31,0,0,0,10.44-15.85c-1.84-12.68-6.42-34.8-8.62-42.7a2.32,2.32,0,0,0-1.39-1.55,2.24,2.24,0,0,0-2,.17l-9.36,5.62c-9,5.45-23.55,5.34-32.31-.24-.85-.54-1.57-1-2.13-1.44A.49.49,0,0,0,1645.62,1600.07Z"/><path class="cls-1" d="M1705.3,1646c0,.23.07.39.08.47,1.21,8.29-6.67,13.38-14.2,16.92-22.33,10.48-112.55,4.47-116,4.24H1575c-1.12,0-12.58,0-15.88-7.1a12.09,12.09,0,0,1-.81-3.3,16.14,16.14,0,0,1,.29-5.71,2.76,2.76,0,0,1,3.36-2.1c16.74,4.28,56,7.08,94.91,1.4,14.34-2.09,37.26-8.52,43.28-12.12a2.75,2.75,0,0,1,4.11,1.86C1704.53,1642.09,1704.91,1644,1705.3,1646Z"/><path d="M1631.65,1671.7c-27.92,0-54.6-1.77-56.65-1.91-1.45,0-14,0-17.92-8.38a13.81,13.81,0,0,1-1-3.93,18.84,18.84,0,0,1,.33-6.49,5,5,0,0,1,2.27-3.19,4.91,4.91,0,0,1,3.79-.57c14.52,3.71,52.89,7.36,94,1.35,14-2,36.64-8.35,42.46-11.83a5,5,0,0,1,4.55-.28,5,5,0,0,1,2.87,3.61l1.08,5.46c0,.28.09.47.1.56,1.46,10.07-8.12,15.81-15.45,19.25C1681.48,1670.35,1656.09,1671.7,1631.65,1671.7Zm-56.71-6.33h.36c32.13,2.18,97.51,4.15,114.94-4,9.76-4.58,13.75-9.08,13-14.6l-.06-.35h0l-1.07-5.45a.58.58,0,0,0-.33-.43.5.5,0,0,0-.48,0c-6.3,3.76-29.38,10.26-44.09,12.41-37.27,5.44-77.16,3.32-95.78-1.44a.45.45,0,0,0-.38,0,.59.59,0,0,0-.27.38,14.13,14.13,0,0,0-.26,4.94,9.55,9.55,0,0,0,.63,2.66c2.75,5.92,13.36,5.81,13.83,5.82Z"/><path d="M1641.06,1620.94a2.16,2.16,0,0,1-1.33-.45L1626,1610.07a2.21,2.21,0,1,1,2.68-3.52l13.69,10.42a2.21,2.21,0,0,1-1.35,4Z"/><path d="M1622.88,1628.4a2.17,2.17,0,0,1-1.32-.45l-12-9a2.21,2.21,0,1,1,2.66-3.54l12,9a2.22,2.22,0,0,1-1.33,4Z"/><path class="cls-1" d="M1791.54,1571l35.23-5.09,20.81,44.13a15.51,15.51,0,0,1-5.57,19.12,152.31,152.31,0,0,1-34,16.21c-26.11,8.39-52.18,32.47-74.63,20.63s-21-12.71-22.1-20.82,21.14-24.06,36.19-34.57C1759.8,1602.05,1791.54,1571,1791.54,1571Z"/><path d="M1746.58,1671.41a29.9,29.9,0,0,1-14.2-3.44c-21.15-11.15-22.09-13.17-23-20.89-.06-.5-.13-1-.21-1.58-1.13-8.17,14-20.58,37.11-36.69,12-8.38,43.44-39.07,43.75-39.38a2.32,2.32,0,0,1,1.23-.61l35.24-5.09a2.22,2.22,0,0,1,2.32,1.24l20.8,44.14a17.81,17.81,0,0,1-6.38,21.93,155.23,155.23,0,0,1-34.48,16.45c-8.07,2.59-16.3,6.8-24.26,10.87C1771.85,1664.81,1758.93,1671.41,1746.58,1671.41Zm46-98.31c-4.3,4.19-32.21,31.26-43.8,39.34-9,6.25-36.25,25.29-35.25,32.45.08.58.14,1.13.21,1.65.72,5.84.87,7.06,20.72,17.52,14.35,7.56,30.69-.79,48-9.64,8.11-4.15,16.51-8.44,24.92-11.14a150.53,150.53,0,0,0,33.46-16,13.25,13.25,0,0,0,4.74-16.32l-20.1-42.64Z"/><path d="M1780,1609.28a2.21,2.21,0,0,1-1.2-.36l-15.9-10.33a2.21,2.21,0,0,1,2.42-3.71l15.89,10.33a2.21,2.21,0,0,1-1.21,4.07Z"/><path d="M1768.67,1621.12a2.26,2.26,0,0,1-1.21-.35l-15.89-10.34a2.21,2.21,0,0,1,2.42-3.71l15.89,10.34a2.21,2.21,0,0,1-1.21,4.06Z"/><path class="cls-1" d="M1712.86,1651.26s17.67,12.88,37.11,6.15,97.61-47.88,97.61-47.88l4,8.85a9.53,9.53,0,0,1-4,12.24c-19.47,11-71.43,38.92-98.48,40.76C1715.41,1673.67,1712.86,1651.26,1712.86,1651.26Z"/><path d="M1744.45,1673.76c-30.88,0-33.76-22-33.79-22.25a2.21,2.21,0,0,1,3.5-2c.17.12,17,12.1,35.09,5.85,19.06-6.59,96.52-47.34,97.3-47.75a2.22,2.22,0,0,1,3,1l4,8.85a11.82,11.82,0,0,1-5,15.09c-20.81,11.72-72.15,39.18-99.42,41C1747.59,1673.7,1746,1673.76,1744.45,1673.76Zm-27.66-17.6c3,5.87,11,14.46,32.17,13,26.36-1.79,77-28.91,97.55-40.48a7.35,7.35,0,0,0,3.09-9.39l-3.06-6.72c-12.78,6.7-78,40.76-95.85,46.93C1736.68,1664.35,1723.72,1659.69,1716.79,1656.16Z"/><path class="cls-1" d="M1768,1220.53s-121.37,49.36-166.15,103.6c-42.78,51.83,149.93,240,149.93,240,.24.9,65.49-36,65.49-37.11l-50-109c-19.72-42.52-59.17-66.81-43.08-81.75,14.64-13.6,96-6.57,137.79-8,74.21-2.58,73.5-110.76,73.5-110.76Z"/><path d="M1751.87,1566.41a2.35,2.35,0,0,1-1.61-.65c-7.93-7.75-193.67-190.25-150.09-243,44.62-54,165.8-103.74,167-104.24a2.37,2.37,0,0,1,.79-.16l167.5-3a2.2,2.2,0,0,1,2.25,2.2c0,1.1-.15,110.36-75.63,113-12,.42-27.11.15-43.12-.15-37.17-.67-83.44-1.52-93.25,7.59-7.53,7-.43,16.63,13.84,34.46,9.54,11.94,21.42,26.79,29.75,44.74l50,109a2.28,2.28,0,0,1,.2.92c0,1.62,0,2.11-33,20.8-14.69,8.32-32.58,18.28-34.37,18.52Zm-.56-4.35Zm17.16-339.32c-7.5,3.1-122.21,51.1-164.89,102.8-39.46,47.79,133.85,221.3,148.76,236.07,8.23-3.92,53.94-29.81,62.2-35.22L1765.3,1419c-8.1-17.46-19.79-32.08-29.19-43.83-13.56-17-24.28-30.36-13.39-40.47,11.12-10.32,54.44-9.53,96.34-8.77,16,.29,31,.57,42.89.15,65.4-2.27,70.87-91,71.32-106.29Z"/><path class="cls-1" d="M1664.63,1354.91c-10.48,39.19-20.44,157.09-22.74,223,0,.91,66.79,1.55,66.93.36.67-5.8,50.06-184.34,77.64-231.56,14.65-25.08,109.18-17.89,130.27-22.08,56.29-11.18,52.6-124.83,52.6-124.83l-263.56,105.26C1683.23,1308.51,1670.57,1332.7,1664.63,1354.91Z"/><path d="M1690.7,1581.17l-10.77,0c-14-.06-31.09-.34-36.58-.76-1.49-.11-3.75-.28-3.67-2.52,2.26-64.81,12.27-184.1,22.81-223.52,4.66-17.43,16.4-47.23,42.69-51.41l263.33-105.16a2.21,2.21,0,0,1,3,2c.16,4.72,3.09,115.66-54.38,127.07-6.05,1.2-17.37,1.48-31.71,1.84-34.69.85-87.12,2.15-97.08,19.19-27.45,47-76.55,224.32-77.36,230.7C1710.76,1580.69,1710.71,1581.17,1690.7,1581.17Zm-46.53-5.14c9.75.71,54.54,1,62.78.36,4.45-19.45,51.43-186,77.6-230.77,11.2-19.17,63-20.45,100.8-21.39,13.56-.33,25.27-.62,31-1.75,48.65-9.66,50.9-101.09,50.86-119.41l-260.57,104.06a2.11,2.11,0,0,1-.49.14c-24,3.65-34.94,31.77-39.33,48.21C1656.41,1394.21,1646.56,1511,1644.17,1576Zm20.46-221.12h0Z"/><path d="M1986.21,1019.84s-2.26-90.68-55.58-108.28a50.75,50.75,0,0,0-14-2.42l-47-1.77c-14-.11-25.53,3.26-40.46,8.73-12.49,4.57-26.4,13.08-34.51,20.46-35.78,32.5-36.14,141.62-67.09,139-10.39-.87-27.78-18.22-45-39.46-13.79-17-37.53-37.89-37.53-37.89l-41.36,20.88a387.24,387.24,0,0,1,25.93,51.91c15.13,37.53,40,69,71.06,96a33.78,33.78,0,0,0,37.21,4.69c19.83-9.89,49.55-25.81,68-40.85a70.33,70.33,0,0,1-16,67.15,105.9,105.9,0,0,1-16.18,14.48,12.92,12.92,0,0,0-3.11,17.68c6.24,9.27,18.69,19.94,42.46,17.44,31.23-3.29,120.15-2.93,159.41-2.59A18.54,18.54,0,0,0,1991,1226Z"/><path class="cls-1" d="M1805.2,1133.54a2.22,2.22,0,0,1-1.36-4c5.31-4.16,21.49-19.18,30-31.62a2.21,2.21,0,0,1,3.66,2.49c-8.77,12.85-25.44,28.33-30.92,32.61A2.17,2.17,0,0,1,1805.2,1133.54Z"/><path class="cls-1" d="M1639.79,999.42l-6.32-34.21s-5.17-26.09-11.49-29.57c-4.65-2.56-7.74,7.13-6.77,19.35a1.8,1.8,0,0,1-3.43.91c-3.3-7.28-6.74-15.81-7-20.26-.58-8.7-2.3-26.67-10.34-24.93s-22.41,29.57-11.49,53.34,36.19,45.81,36.19,45.81Z"/><path d="M1619.11,1012.07a2.2,2.2,0,0,1-1.46-.54c-1-.91-25.76-22.62-36.74-46.55-7.23-15.74-3.88-33.19,1.66-44.28,3.41-6.81,7.66-11.35,11.37-12.15a6.64,6.64,0,0,1,5.58,1.22c4.12,3.1,6.48,11.28,7.43,25.73.21,3,2.3,9.2,5.92,17.42-.31-7.57.82-16.39,5-19.11a4.83,4.83,0,0,1,5.15-.11c6.87,3.79,11.69,26.56,12.59,31.08L1642,999a2.21,2.21,0,0,1-1.18,2.38l-20.68,10.44A2.28,2.28,0,0,1,1619.11,1012.07Zm-23.65-99.27a3.25,3.25,0,0,0-.59.07c-1.85.4-5.25,3.64-8.34,9.81-5.08,10.17-8.17,26.13-1.6,40.45,9.3,20.27,29.59,39.56,34.53,44.07l17.85-9-6-32.58c-2.06-10.39-6.64-26-10.38-28-.37-.21-.47-.14-.61-.06-1.64,1.06-3.68,7.29-2.88,17.3a4,4,0,0,1-7.66,2c-4.53-10-7-17.08-7.22-21-1-15.84-3.67-21-5.68-22.49A2.29,2.29,0,0,0,1595.46,912.8Z"/><path class="cls-1" d="M1852.93,921.34a1.46,1.46,0,0,1-.47-2.69c3.92-2.27,9.46-6.38,9.11-11.35l.85-19.18a5.43,5.43,0,0,0-3.82-5.06l-13.8-4.19a5,5,0,0,1-3.52-4.89l.43-20.35-6.69-5.4a1.25,1.25,0,0,1-.21-1.73l9.67-12.76c3.13-4.8,6-16.1,8.77-15.45,0,0,57.17-9,61.77,19.4a17.76,17.76,0,0,1-2.75,12.46l-4.84,7.42a36.77,36.77,0,0,0-5.92,25.25c.41,2.78,6.87,28.3,6.87,28.3s11.47,5.19,18.49,7.14a1.63,1.63,0,0,1,.12,3.09l-12.83,3.06a95.44,95.44,0,0,1-39.07,1Z"/><path d="M1892.31,929.18a98,98,0,0,1-17.62-1.61l-22.16-4.06a3.67,3.67,0,0,1-1.18-6.77c5.29-3.07,8.21-6.45,8-9.28a2.18,2.18,0,0,1,0-.25l.85-19.19a3.16,3.16,0,0,0-2.26-2.84L1844.16,881a7.23,7.23,0,0,1-5.09-7.06l.41-19.26-5.85-4.72a3.44,3.44,0,0,1-.59-4.78l9.68-12.77a51.74,51.74,0,0,0,3.18-6.76c2.29-5.49,4.18-9.88,7.35-9.59,5.31-.79,59.19-8.08,64,21.28a19.9,19.9,0,0,1-3.09,14l-4.84,7.42a34.47,34.47,0,0,0-5.58,23.72c.28,1.89,4,16.81,6.56,27a155.18,155.18,0,0,0,17.2,6.59,3.84,3.84,0,0,1,.28,7.3l-.24.08-12.83,3.06A97.43,97.43,0,0,1,1892.31,929.18Zm-37-9.66,20.21,3.69a92.77,92.77,0,0,0,38.16-1l10.5-2.51c-7-2.25-16.25-6.42-16.68-6.62a2.21,2.21,0,0,1-1.23-1.47c-.67-2.62-6.51-25.71-6.92-28.52a38.88,38.88,0,0,1,6.26-26.78l4.83-7.42a15.43,15.43,0,0,0,2.43-10.9c-4.21-25.93-58.7-17.65-59.25-17.56l-.24,0c-.9.93-2.37,4.46-3.37,6.84a51.63,51.63,0,0,1-3.65,7.61l-9.2,12.15,6,4.81a2.21,2.21,0,0,1,.82,1.77l-.43,20.35a2.8,2.8,0,0,0,2,2.72l13.79,4.2a7.6,7.6,0,0,1,5.39,7.11l-.84,19.22C1864.07,912.5,1859.66,916.68,1855.28,919.52Z"/><path d="M1849.45,774.1c13.21-1.23-3,13,45.47-3,19.29-6.4,10.22,16.78,15.23,15.13,18.49-6.08,17.85-5.89,27-3.81,6.1,1.38,10.41,12.42,9.56,20.8-1.12,11.07-12.8,29.07-23.15,48-5.36,9.8-15.53,11.1-28.46-2.61-1.38-1.46,5-10.67,1.29-14.37-9.53-9.61-12.94,5.66-20.48,1.31-7.25-4.18-10.28-7-18-13.41-9.37-7.81-24,5.58-30-12.64C1824.81,800,1831.38,775.79,1849.45,774.1Z"/><path d="M1978.69,1623.29h-80.41V1332.83h-41.36v290.46h-80.4a44.49,44.49,0,0,0-44.49,44.49v8.06h291.15v-8.06A44.49,44.49,0,0,0,1978.69,1623.29Z"/><path class="cls-1" d="M2001.09,1026.29h-20.8c-55.48,0-103.48,39-115.33,93.7l-24.22,111.73a56.54,56.54,0,0,1-55.12,44.79h-43.73a41.79,41.79,0,0,0,0,83.57h71l0,.19h125c43.74,0,81.58-30.74,90.93-73.87l38.4-177.21C2076.43,1066.59,2044.29,1026.29,2001.09,1026.29Z"/><path d="M1937.87,1362.49h-125a2.15,2.15,0,0,1-.9-.2h-70.09a44,44,0,0,1,0-88h43.73c25.28,0,47.56-18.1,53-43l24.21-111.74c12-55.3,61.4-95.44,117.5-95.44h20.8a69.34,69.34,0,0,1,54.2,26,70.6,70.6,0,0,1,14.07,59.58L2031,1286.87C2021.46,1330.68,1982.31,1362.49,1937.87,1362.49Zm-124-4.43h124c42.37,0,79.71-30.33,88.76-72.13L2065,1108.72a66.22,66.22,0,0,0-13.19-55.86,65,65,0,0,0-50.76-24.36h-20.8c-54,0-101.62,38.68-113.17,92l-24.22,111.73c-5.84,27-29.93,46.53-57.28,46.53h-43.73a39.58,39.58,0,0,0,0,79.15h71A2.32,2.32,0,0,1,1813.83,1358.06Z"/><path class="cls-1" d="M1456.31,1344.32H897a13.89,13.89,0,0,0-13.82,15.29L936.56,1886a3.86,3.86,0,0,0,3.93,3.48l28.89-.61a2.1,2.1,0,0,0,2-2.24l-35.16-489.43a13.91,13.91,0,0,1,13.88-14.89l453.94.58a13.9,13.9,0,0,1,13.84,15l-37.35,486.9a4.43,4.43,0,0,0,4.29,4.77l25.22.69a3.48,3.48,0,0,0,3.54-3.1l56.5-527.38A13.89,13.89,0,0,0,1456.31,1344.32Z"/><path d="M1410.17,1892.38H1410l-25.22-.69a6.66,6.66,0,0,1-6.44-7.15l37.35-486.9a11.68,11.68,0,0,0-11.63-12.58l-453.94-.58h0A11.69,11.69,0,0,0,938.47,1397l35.16,489.43a4.31,4.31,0,0,1-4.2,4.61l-28.89.61a6.09,6.09,0,0,1-6.18-5.47L881,1359.84a16.09,16.09,0,0,1,16-17.73h559.32a16.1,16.1,0,0,1,16,17.82l-56.5,527.38A5.72,5.72,0,0,1,1410.17,1892.38ZM950.12,1380.06h0l453.94.58a16.1,16.1,0,0,1,16,17.34l-37.35,486.9a2.22,2.22,0,0,0,.57,1.65,2.14,2.14,0,0,0,1.58.73l25.22.69a1.27,1.27,0,0,0,1.28-1.11l56.5-527.38a11.67,11.67,0,0,0-11.61-12.93H897a11.67,11.67,0,0,0-11.62,12.86l53.39,526.35a1.71,1.71,0,0,0,1.69,1.49l28.88-.62-35.27-489.29a16.1,16.1,0,0,1,16.06-17.26Z"/><path class="cls-1" d="M1355,1375.05a2.21,2.21,0,0,1-2.21-2.21V1349a2.21,2.21,0,0,1,4.42,0v23.8A2.21,2.21,0,0,1,1355,1375.05Z"/><path d="M1105.45,1549c-12.6,57.68,37.34,215.47,47.81,253.93a11.62,11.62,0,0,0,11.23,8.53H1211a11.58,11.58,0,0,0,11.64-11.65c-.43-45.62-8.72-212,19.72-259.85,16.47-27.73,46.63-40.23,66.8-53.42,48.41-31.67,30.18-101.79,30.18-101.79l-182.84,108.53C1131.19,1497.1,1110.87,1524.18,1105.45,1549Z"/><path d="M1174.8,1402.92s-159.62,1.43-209.95,61.39c-45.23,53.9,21.83,291.17,35.87,338.67a11.62,11.62,0,0,0,11.17,8.29h60a2.29,2.29,0,0,0,2.29-2.27V1557.59c0-15.84,3.1-7.35,16.51-15.93,18.79-12,52.88-1.82,99.86-1.47,149.17,1.1,125.14-139.33,125.14-139.33Z"/><polygon class="cls-1" points="1211.43 1811.72 1214.56 1852.43 1177.28 1852.62 1169.57 1812 1211.43 1811.72"/><path d="M1177.28,1854.83a2.22,2.22,0,0,1-2.18-1.8l-7.7-40.62a2.21,2.21,0,0,1,2.16-2.62l41.86-.28h0a2.21,2.21,0,0,1,2.21,2l3.13,40.71a2.18,2.18,0,0,1-.58,1.67,2.26,2.26,0,0,1-1.62.72l-37.28.18Zm-5-40.63,6.87,36.2,33.06-.17-2.79-36.28Z"/><polygon class="cls-1" points="1064.01 1811.72 1063.44 1852.43 1025 1852.62 1018.16 1812 1064.01 1811.72"/><path d="M1025,1854.83a2.22,2.22,0,0,1-2.19-1.84l-6.83-40.62a2.22,2.22,0,0,1,2.17-2.58l45.84-.28h0a2.2,2.2,0,0,1,2.21,2.24l-.57,40.71a2.22,2.22,0,0,1-2.2,2.19l-38.44.18Zm-4.23-40.63,6.1,36.2,34.39-.17.5-36.28Z"/><path class="cls-1" d="M1025.54,1847.43h35.76a6.23,6.23,0,0,1,5.78,3.83c3.17,7.66,9.63,25.55,8.76,42.52a8.76,8.76,0,0,1-8.79,8.27H962.13a7.6,7.6,0,0,1-7.52-9.07c1.16-5.62,5.15-13,16.65-19.66,18.63-10.76,42-21.52,49.42-24.85A11.79,11.79,0,0,1,1025.54,1847.43Z"/><path d="M1067.05,1904.26H962.13a9.89,9.89,0,0,1-7.7-3.65,9.65,9.65,0,0,1-2-8.07c1.16-5.65,5.18-13.89,17.71-21.13,18.83-10.88,42.74-21.85,49.62-25a13.84,13.84,0,0,1,5.77-1.25h35.76a8.44,8.44,0,0,1,7.83,5.21c3,7.2,9.82,25.85,8.92,43.48A11,11,0,0,1,1067.05,1904.26Zm-41.51-54.62a9.53,9.53,0,0,0-4,.85c-6.83,3.08-30.57,14-49.21,24.75-8.8,5.08-14.19,11.37-15.59,18.19a5.25,5.25,0,0,0,1.08,4.39,5.51,5.51,0,0,0,4.27,2h104.92a6.54,6.54,0,0,0,6.58-6.17c.86-16.72-5.72-34.64-8.59-41.56a4,4,0,0,0-3.74-2.47Z"/><path class="cls-1" d="M1178.55,1847.43h35.76a6.23,6.23,0,0,1,5.78,3.83c3.17,7.66,9.63,25.55,8.76,42.52a8.76,8.76,0,0,1-8.79,8.27H1115.14a7.6,7.6,0,0,1-7.52-9.07c1.16-5.62,5.14-13,16.65-19.66,18.62-10.76,42-21.52,49.41-24.85A11.84,11.84,0,0,1,1178.55,1847.43Z"/><path d="M1220.06,1904.26H1115.14a9.89,9.89,0,0,1-7.7-3.65,9.65,9.65,0,0,1-2-8.07c1.16-5.65,5.18-13.89,17.71-21.13,18.83-10.88,42.74-21.85,49.61-25a13.92,13.92,0,0,1,5.78-1.25h35.76a8.45,8.45,0,0,1,7.83,5.21c3,7.2,9.82,25.86,8.92,43.48A11,11,0,0,1,1220.06,1904.26Zm-41.51-54.62a9.53,9.53,0,0,0-4,.85c-6.83,3.08-30.56,14-49.22,24.75-8.79,5.08-14.18,11.37-15.59,18.19a5.25,5.25,0,0,0,1.09,4.39,5.51,5.51,0,0,0,4.27,2h104.92a6.54,6.54,0,0,0,6.58-6.17c.86-16.72-5.72-34.63-8.59-41.56a4,4,0,0,0-3.74-2.47Z"/><path class="cls-1" d="M1039.79,1322.6l-19.55-7.29a34.9,34.9,0,0,0-25.55.36c-10.22,4.19-24.09,11-33.59,20-2.38,2.26-.92,6.39,2.29,6.39h75.49Z"/><path d="M1038.88,1344.24H963.39a5.59,5.59,0,0,1-5.25-3.62,6,6,0,0,1,1.44-6.59c9.8-9.28,24-16.22,34.28-20.41a37.18,37.18,0,0,1,27.16-.39l19.54,7.3a2.22,2.22,0,0,1,1.44,2.17l-.91,19.43A2.22,2.22,0,0,1,1038.88,1344.24Zm-31-29a32.51,32.51,0,0,0-12.37,2.44c-9.88,4-23.61,10.71-32.91,19.52a1.58,1.58,0,0,0-.37,1.75,1.21,1.21,0,0,0,1.14.82h73.38l.73-15.7-18-6.73A33.08,33.08,0,0,0,1007.9,1315.28Z"/><path class="cls-1" d="M1372.44,1235.65s2.11-75.76-50.15-84.9c0-.07.06-.15.08-.22L1267,1147.4s-35.57-4.92-68.34,23.28c-29.56,25.44-36,90.69-55,107.29-16.39,14.4-86.93,33.12-105.41,37.84a5.86,5.86,0,0,0-4.43,5.71l.06,17.89H1145.8a57.65,57.65,0,0,0,41.37-17.46c6.53-6.72,14.57-15,23.45-24.28a69.75,69.75,0,0,0,4.58,25.88c8.17,21.4,4.27,45.63-11.39,62.42-6.57,7-14,13.37-21.85,17.16,0,0,5,23.65,41.44,25.27,14.81.66,53.94,2.07,83,.42,39.74-2.26,69.08-9.58,69.08-9.58Z"/><path d="M1274.26,1431.81c-20.88,0-41-.76-51-1.2-37.72-1.68-43.29-26-43.51-27a2.22,2.22,0,0,1,1.2-2.45c6.81-3.29,14-8.9,21.2-16.68,14.84-15.91,19-38.94,10.94-60.12a72,72,0,0,1-4.6-21.28c-6.75,7-12.93,13.39-18.21,18.83l-1.56,1.6a60.19,60.19,0,0,1-43,18.14H1033.94a2.21,2.21,0,0,1-2.21-2.21l-.07-17.89a8.09,8.09,0,0,1,6.1-7.86c42.26-10.81,91.91-26.3,104.5-37.36,8-7,13.94-24,20.29-42.11,8.33-23.74,17.78-50.64,34.69-65.2,33.14-28.52,68.59-24,70.08-23.79l55.18,3.11a2.2,2.2,0,0,1,1.21.44c51.86,10,51,84.44,50.94,86.9l3.08,183.55a2.21,2.21,0,0,1-1.68,2.18,420,420,0,0,1-69.48,9.64C1296.47,1431.6,1285.25,1431.81,1274.26,1431.81Zm-89.65-27.54c1.84,5.12,9.8,20.63,38.89,21.92,11.87.53,52.93,2.11,82.82.42a424.32,424.32,0,0,0,67-9.11l-3-181.81v-.1c0-.74,1.43-73.95-48.32-82.66a2.14,2.14,0,0,1-.71-.25l-54.31-3.07c-.52-.07-35.2-4.42-66.77,22.75-16,13.78-25.25,40.09-33.4,63.3-6.83,19.44-12.72,36.23-21.54,44-16.59,14.58-85.58,33-106.33,38.32a3.67,3.67,0,0,0-2.76,3.56l.05,15.69H1145.8a55.73,55.73,0,0,0,39.78-16.79l1.56-1.6c6.23-6.42,13.7-14.1,21.88-22.67a2.21,2.21,0,0,1,3.81,1.57,67.31,67.31,0,0,0,4.43,25c8.7,22.77,4.17,47.57-11.83,64.72C1198.38,1395,1191.39,1400.67,1184.61,1404.27Z"/><path d="M1208.21,1306.31a2.25,2.25,0,0,1-1.51-.59,2.22,2.22,0,0,1-.11-3.13,165.65,165.65,0,0,0,33.35-53.4,2.21,2.21,0,0,1,4.13,1.59,170,170,0,0,1-34.24,54.82A2.22,2.22,0,0,1,1208.21,1306.31Z"/><path class="cls-1" d="M1234,1051.51s-2.07,18.51-11.35,28.79a2.38,2.38,0,0,0-.32,2.83l3.82,6.39a9,9,0,0,1,.81,1.76l6.35,18.67a4.56,4.56,0,0,0,3.93,3.07c4,.33,14-1.21,14.86,1.44.91,3,.21,26.93-.15,37.36a5.58,5.58,0,0,0,4.58,5.69l21.49,4a49,49,0,0,0,28.57-3.34,5.65,5.65,0,0,0,2.85-7.55c-4.91-10.49-15.67-35.55-14.25-50.88l9.55-26.72a23.17,23.17,0,0,0-23.82-22.65Z"/><path d="M1286.94,1164.51a51.44,51.44,0,0,1-9.31-.86l-21.48-4a7.76,7.76,0,0,1-6.39-8c.79-23.29.68-33.93.31-36.29-1.33-.53-5.59-.36-8-.27a45.55,45.55,0,0,1-5,0,6.74,6.74,0,0,1-5.83-4.56l-6.35-18.67a6.69,6.69,0,0,0-.62-1.33l-3.82-6.39a4.58,4.58,0,0,1,.58-5.45c8.7-9.64,10.78-27.38,10.8-27.55a2.22,2.22,0,0,1,2.14-2l46.91-1.17a25.4,25.4,0,0,1,18.31,7.07A25.05,25.05,0,0,1,1307,1073a2.1,2.1,0,0,1-.13.78l-9.45,26.45c-1.22,14.89,9.42,39.53,14.07,49.48a7.83,7.83,0,0,1-4,10.5A50.94,50.94,0,0,1,1286.94,1164.51Zm-40.75-53.86c4.08,0,7.23.53,8,3.15.75,2.42.73,15.23,0,38.09a3.37,3.37,0,0,0,2.77,3.45l21.49,4a46.5,46.5,0,0,0,27.27-3.19,3.45,3.45,0,0,0,1.85-1.94,3.41,3.41,0,0,0-.11-2.64c-4.83-10.33-15.92-36.1-14.44-52a2.62,2.62,0,0,1,.12-.54l9.41-26.33a20.65,20.65,0,0,0-6.41-14.23,20.94,20.94,0,0,0-15.14-5.85l-45,1.13c-.82,5.14-3.69,19.29-11.64,28.1a.25.25,0,0,0-.08.22l3.83,6.39a11.37,11.37,0,0,1,1,2.18l6.35,18.66a2.31,2.31,0,0,0,2,1.58,44,44,0,0,0,4.51,0C1243.43,1110.71,1244.86,1110.65,1246.19,1110.65Z"/><path d="M1229.68,1045a5.71,5.71,0,0,0,2.42,8.3l1.92.88,36.86,18.16a2.83,2.83,0,0,0,2.9-.21c1.53-1.11,4.27-2.47,7-.72,3.83,2.45,4.6,15.5-5.24,19a2.35,2.35,0,0,0-1.49,3.09,43.61,43.61,0,0,0,2.57,5.18c8.68,14.93,30.15,15.82,40.5,2,7.63-10.21,14.61-27,6-49.93C1309.67,1014.65,1254.59,1006.9,1229.68,1045Z"/><path d="M1319.43,1036.62s16.08-19.09,39.61-11.69,24.73,47.22,27.46,72c9.61,87.43,31,119.26,37.85,127.15,7.65,8.77-52.5,2.82-72.76-4.09-58.4-19.9-27.65-76.13-24.9-86.26s24.51-66.79-2.55-73.41l-13.73-11.68Z"/><path class="cls-1" d="M1326.83,1063.91l-.29.1a5,5,0,0,1-6.35-2.91l-7.17-19.38a4.91,4.91,0,0,1,2.93-6.31l.29-.1a5,5,0,0,1,6.35,2.91l7.17,19.39A4.89,4.89,0,0,1,1326.83,1063.91Z"/><path d="M1324.84,1066.53a7.17,7.17,0,0,1-6.72-4.66l-7.18-19.39a7.11,7.11,0,0,1,4.26-9.14l.29-.11a7.18,7.18,0,0,1,9.18,4.23l7.17,19.38a7.13,7.13,0,0,1-4.25,9.15l-.29.1A7.06,7.06,0,0,1,1324.84,1066.53Zm-6.89-29.31a2.61,2.61,0,0,0-1,.17l-.29.1a2.74,2.74,0,0,0-1.54,1.41,2.65,2.65,0,0,0-.08,2l7.18,19.38a2.75,2.75,0,0,0,3.51,1.61l.29-.11h0a2.7,2.7,0,0,0,1.54-1.41,2.63,2.63,0,0,0,.08-2l-7.17-19.39A2.75,2.75,0,0,0,1318,1037.22Z"/><path class="cls-1" d="M1342,1870.53h-80.41V1580.07h-41.36v290.46h-80.41a44.49,44.49,0,0,0-44.49,44.49v8.07h291.16V1915A44.49,44.49,0,0,0,1342,1870.53Z"/><path d="M1386.45,1925.3H1095.29a2.21,2.21,0,0,1-2.21-2.21V1915a46.75,46.75,0,0,1,46.7-46.7H1218V1580.07a2.21,2.21,0,0,1,2.21-2.21h41.36a2.21,2.21,0,0,1,2.21,2.21v288.25H1342a46.75,46.75,0,0,1,46.7,46.7v8.07A2.21,2.21,0,0,1,1386.45,1925.3Zm-289-4.43h286.73V1915a42.31,42.31,0,0,0-42.27-42.27h-80.41a2.21,2.21,0,0,1-2.21-2.22V1582.28H1222.4v288.25a2.21,2.21,0,0,1-2.21,2.22h-80.41A42.32,42.32,0,0,0,1097.5,1915Z"/><path class="cls-1" d="M1364.36,1273.53h-20.81c-55.48,0-103.47,39-115.33,93.7L1204,1479a56.56,56.56,0,0,1-55.12,44.78h-43.74a41.79,41.79,0,0,0,0,83.57h71l0,.2h125c43.74,0,81.58-30.75,90.93-73.88l38.41-177.2C1439.7,1313.84,1407.56,1273.53,1364.36,1273.53Z"/><path d="M1301.13,1609.73h-125a2.27,2.27,0,0,1-.9-.19h-70.1a44,44,0,0,1,0-88h43.74c25.28,0,47.55-18.1,52.95-43l24.22-111.73c12-55.31,61.4-95.45,117.49-95.45h20.81a69.39,69.39,0,0,1,54.2,26,70.69,70.69,0,0,1,14.07,59.59l-38.41,177.2C1384.73,1577.93,1345.58,1609.73,1301.13,1609.73Zm-124-4.42h124c42.38,0,79.71-30.34,88.77-72.14l38.4-177.2a66.24,66.24,0,0,0-13.19-55.87,64.94,64.94,0,0,0-50.75-24.35h-20.81c-54,0-101.62,38.67-113.17,92l-24.21,111.74c-5.84,27-29.93,46.52-57.28,46.52h-43.74a39.58,39.58,0,0,0,0,79.15h71A2.12,2.12,0,0,1,1177.09,1605.31Z"/><path class="cls-1" d="M692.25,495a17.55,17.55,0,0,1,17.55,17.55V633.41A17.56,17.56,0,0,1,692.25,651H500.38l-20.65,25.9L447.29,651H359.18a17.56,17.56,0,0,1-17.56-17.56V512.59A17.56,17.56,0,0,1,359.18,495Z"/><path d="M479.73,682a2.18,2.18,0,0,1-1.47-.56l-31.81-28.29H359.18a19.79,19.79,0,0,1-19.77-19.77V512.59a19.79,19.79,0,0,1,19.77-19.77h65.7a2.22,2.22,0,1,1,0,4.43h-65.7a15.36,15.36,0,0,0-15.35,15.34V633.41a15.37,15.37,0,0,0,15.35,15.35h88.11a2.23,2.23,0,0,1,1.47.56l30.72,27.32,22.14-27.07a2.22,2.22,0,0,1,1.71-.81H692.25a15.36,15.36,0,0,0,15.34-15.35V512.59a15.36,15.36,0,0,0-15.34-15.34H469.16a2.22,2.22,0,0,1,0-4.43H692.25A19.79,19.79,0,0,1,712,512.59V633.41a19.79,19.79,0,0,1-19.77,19.77H504.38l-22.93,28a2.24,2.24,0,0,1-1.54.81Z"/><path d="M661.19,554.76H396.49a2.21,2.21,0,1,1,0-4.42h264.7a2.21,2.21,0,1,1,0,4.42Z"/><path d="M661.19,590.13H605.85a2.21,2.21,0,1,1,0-4.42h55.34a2.21,2.21,0,1,1,0,4.42Z"/><path d="M570.47,590.13h-174a2.21,2.21,0,1,1,0-4.42h174a2.21,2.21,0,0,1,0,4.42Z"/></g></g></svg>