<svg xmlns="http://www.w3.org/2000/svg" fill-rule="evenodd" clip-rule="evenodd" image-rendering="optimizeQuality" shape-rendering="geometricPrecision" text-rendering="geometricPrecision" viewBox="0 0 512 512" id="linkedin">
  <rect width="512" height="512" fill="none"></rect>
  <polygon fill="#04c6fb" points="256 106 321 143 386 181 386 256 386 331 321 369 256 406 191 369 126 331 126 256 126 181 191 143" class="color007bb5 svgShape"></polygon>
  <polygon fill="#0081a4" points="256 406 191 369 126 331 126 256 126 181 191 143 256 106" class="color0066a4 svgShape"></polygon>
  <polygon fill="#04c6fb" points="256 131 310 162 364 193 364 256 364 319 310 350 256 381 202 350 148 319 148 256 148 193 202 162" class="color007bb5 svgShape"></polygon>
  <path fill="#ffffff" d="M243 308l25 0 0 -48c0,-9 4,-13 12,-13 9,0 13,4 13,13l0 48 24 0 0 -42c0,-28 -4,-47 -33,-44 -13,2 -13,7 -16,11l0 -11 -25 0 0 86z" class="colorfdfefe svgShape"></path>
  <polygon fill="#ffffff" points="206 308 231 308 231 222 206 222" class="colorfdfefe svgShape"></polygon>
  <path fill="#ffffff" d="M216 191c-16,4 -10,28 6,24 15,-3 10,-27 -6,-24z" class="colorfdfefe svgShape"></path>
</svg>
