<svg width="402" height="64" viewBox="0 0 402 64" fill="none" xmlns="http://www.w3.org/2000/svg">
<path d="M41.3333 0.0820312H10.6667C4.77563 0.0820312 0 4.82092 0 10.6666V41.0974C0 46.9431 4.77563 51.682 10.6667 51.682H41.3333C47.2244 51.682 52 46.9431 52 41.0974V10.6666C52 4.82092 47.2244 0.0820312 41.3333 0.0820312Z" fill="#0069FF"/>
<g filter="url(#filter0_d_2974_1323)">
<path d="M30.3613 38.5907H21.9572C21.7459 38.5907 21.6132 38.8196 21.7164 39.0088L22.3209 39.7506H29.9927L30.5972 39.0088C30.7053 38.8196 30.5726 38.5907 30.3613 38.5907Z" fill="white"/>
<path d="M32.1892 43.8826H20.1287C19.9419 43.8826 19.765 43.9324 19.6176 44.0219C19.3128 44.2014 19.1113 44.5348 19.1113 44.9181H20.1287H21.146H31.167H32.1843H33.2016C33.2066 44.3456 32.7495 43.8826 32.1892 43.8826Z" fill="white"/>
<path d="M28.1543 44.9181H19.1113V45.9488H28.1543H33.2066V44.9181H28.1543Z" fill="white"/>
<path d="M32.0025 41.4684C31.7469 41.314 31.5012 41.1495 31.2653 40.9705C31.0294 40.7914 30.8033 40.5969 30.5919 40.3927C30.4838 40.2882 30.3757 40.1788 30.2725 40.0695C30.2332 40.0245 30.0022 39.7607 30.0022 39.7607H26.1933H26.154H26.1147H22.3059C22.3059 39.7607 22.0749 40.0245 22.0355 40.0695C21.9323 40.1788 21.8242 40.2882 21.7161 40.3927C21.5047 40.5969 21.2787 40.7914 21.0428 40.9705C20.8069 41.1495 20.5612 41.3189 20.3056 41.4684C19.7601 41.8018 19.1113 42.1004 19.1113 42.8523C19.1113 43.4199 19.5684 43.8826 20.1287 43.8826H26.1196H26.1589H26.1983H32.1892C32.7495 43.8826 33.2066 43.4199 33.2066 42.8523C33.2066 42.1004 32.5578 41.8018 32.0025 41.4684Z" fill="white"/>
<path d="M19.6423 42.8175C19.6423 42.4739 19.829 42.1754 20.1092 42.021C19.7111 42.036 19.3916 42.3694 19.3916 42.7725C19.3916 43.1262 19.6275 43.4199 19.9519 43.5046C19.7651 43.3352 19.6423 43.0861 19.6423 42.8175Z" fill="white"/>
<path d="M29.5308 26.1947H22.7732C22.38 26.1947 22.0605 26.5184 22.0605 26.9167C22.0605 27.3149 22.3751 27.6333 22.7682 27.6382H29.5014C29.5554 27.6382 29.6046 27.6333 29.6537 27.6183C29.9731 27.5486 30.209 27.2598 30.209 26.9167C30.214 26.5731 29.9977 26.1947 29.5308 26.1947Z" fill="white"/>
<path d="M22.4582 26.9564C22.4582 26.7125 22.5908 26.4982 22.7924 26.3888C22.5073 26.3989 22.2812 26.6375 22.2812 26.9264C22.2812 27.1756 22.4484 27.3895 22.6793 27.449C22.5466 27.3246 22.4582 27.1504 22.4582 26.9564Z" fill="white"/>
<path d="M29.0982 25.1692H23.0482C22.7681 25.1692 22.5371 25.3982 22.5371 25.6869C22.5371 25.9707 22.7632 26.2045 23.0482 26.2045H29.1031C29.1276 26.2045 29.1522 26.1996 29.1719 26.1948C29.398 26.145 29.57 25.9358 29.57 25.6919C29.57 25.443 29.4029 25.1692 29.0982 25.1692Z" fill="white"/>
<path d="M22.3252 38.6008H29.997C29.014 36.3405 28.3752 33.7817 28.154 31.1532C28.1441 30.934 28.1343 30.7099 28.1343 30.4859C28.1343 29.505 28.2523 28.5493 28.4734 27.6382H25.8883H25.6721H23.893C24.1141 28.5493 24.2321 29.505 24.2321 30.4859C24.2321 30.7201 24.2223 30.949 24.2124 31.1779C23.9814 33.8064 23.3278 36.3255 22.3252 38.6008Z" fill="white"/>
<path d="M30.6361 17.3482C30.6361 16.8752 30.3953 16.4371 30.012 16.1733C29.7908 16.0239 29.5549 15.9642 29.2994 15.9094C28.9897 15.8447 28.6752 15.7899 28.3607 15.7451C27.7758 15.6605 27.1812 15.6107 26.5865 15.5958L26.3555 15.5908C26.2916 15.5908 26.2228 15.5908 26.1589 15.5908C26.095 15.5908 26.0262 15.5908 25.9623 15.5908L25.7313 15.5958C25.1367 15.6107 24.5469 15.6605 23.9572 15.7451C23.6426 15.7899 23.328 15.8447 23.0184 15.9094C22.7629 15.9642 22.527 16.0239 22.3058 16.1733C21.9225 16.4371 21.6816 16.8802 21.6816 17.3482C21.6816 17.4826 21.7013 17.6269 21.7406 17.7514C21.7406 17.7514 23.1954 22.0527 23.8884 24.1038C23.9326 24.273 23.9572 24.4473 23.9572 24.6315C23.9572 24.8206 23.9326 24.9999 23.8834 25.1691L28.459 25.1841C28.4098 25.0098 28.3803 24.8206 28.3803 24.6315C28.3803 24.4025 28.4196 24.1386 28.4884 23.9345H28.4836C29.1962 21.8237 30.5723 17.7514 30.5723 17.7514C30.6165 17.6319 30.6361 17.4826 30.6361 17.3482Z" fill="white"/>
<path d="M28.4051 24.6215H23.8984C23.7411 24.6215 23.6084 24.4921 23.6084 24.3278C23.6084 24.1685 23.7362 24.0341 23.8984 24.0341H28.4051C28.5624 24.0341 28.6951 24.1635 28.6951 24.3278C28.6902 24.4871 28.5624 24.6215 28.4051 24.6215Z" fill="white"/>
<path d="M25.2201 16.0587C24.8613 16.0787 24.5026 16.1185 24.1438 16.1683C23.8686 16.2081 23.5934 16.2579 23.3181 16.3126C23.0921 16.3574 22.8856 16.4122 22.694 16.5466C22.3549 16.7806 22.1484 17.1639 22.1484 17.5821C22.1484 17.6966 22.1681 17.831 22.2025 17.9356C22.2025 17.9356 22.3549 18.3936 22.5859 19.0657C22.7284 17.5771 23.8096 16.3724 25.2201 16.0587Z" fill="white"/>
<path d="M28.1054 14.6748H24.2523C23.9722 14.6748 23.7412 14.9038 23.7412 15.1925C23.7412 15.4763 23.9673 15.7103 24.2523 15.7103H28.1054C28.13 15.7103 28.1546 15.7053 28.1742 15.7003C28.4003 15.6505 28.5723 15.4414 28.5723 15.1975C28.5772 14.9486 28.4052 14.6748 28.1054 14.6748Z" fill="white"/>
<path d="M26.9506 10.946L27.7271 8.54643L26.174 7.79968L24.6161 8.54643L25.3926 10.956L23.5791 10.4084V11.4886V11.7475V12.8278L25.3926 12.2802L24.6161 14.6897L26.174 15.4365L27.7271 14.6897L26.9506 12.2902L28.7395 12.8278V11.7475V11.4886V10.4084L26.9506 10.946Z" fill="white"/>
<path d="M26.9123 7.15158C26.9797 6.73093 26.6977 6.33458 26.2824 6.26631C25.8671 6.19804 25.4758 6.48369 25.4084 6.90438C25.341 7.32503 25.623 7.72138 26.0383 7.78966C26.4536 7.85793 26.8449 7.57227 26.9123 7.15158Z" fill="white"/>
<path d="M26.5566 6.37097C26.6303 6.49045 26.6745 6.63484 26.6745 6.78417C26.6745 7.21231 26.3354 7.55583 25.9127 7.55583C25.7653 7.55583 25.6326 7.51601 25.5146 7.44134C25.6523 7.65537 25.8882 7.79478 26.1536 7.79478C26.5762 7.79478 26.9154 7.45126 26.9154 7.02316C26.9203 6.74933 26.7728 6.5054 26.5566 6.37097Z" fill="white"/>
<path d="M25.5296 7.09775C25.5296 6.72438 25.8295 6.41571 26.203 6.41571C26.4192 6.41571 26.6109 6.52028 26.7337 6.67957C26.6158 6.47547 26.3995 6.33606 26.1489 6.33606C25.7803 6.33606 25.4756 6.63975 25.4756 7.01811C25.4756 7.17242 25.5296 7.31681 25.6132 7.4313C25.564 7.3367 25.5296 7.22221 25.5296 7.09775Z" fill="white"/>
<path d="M27.4274 13.7638C27.4274 13.7638 25.781 14.6151 24.6162 14.6897C27.1964 14.6897 27.7272 14.6897 27.7272 14.6897L27.4274 13.7638Z" fill="white"/>
<path d="M30.0663 19.2549C29.5994 20.4397 28.0022 23.3023 23.8984 24.1088H28.4445C28.4592 24.0491 28.474 23.9893 28.4936 23.9395H28.4887C28.6067 23.591 28.7394 23.1928 28.8819 22.7696H28.877C29.2013 21.8088 29.6535 20.4796 30.0663 19.2549Z" fill="white"/>
<path d="M28.5725 15.1378C28.5675 15.0681 28.5528 15.0034 28.5233 14.9436C28.4889 14.8739 28.4349 14.8142 28.3759 14.7644C28.3513 14.7445 28.3218 14.7246 28.2923 14.7096C28.2825 14.7047 28.2235 14.6748 28.2137 14.6848C28.1891 14.7146 28.14 14.7495 28.0859 14.7893C28.0073 14.849 27.85 14.9486 27.6731 15.0382C27.2898 15.2373 26.6558 15.4763 25.6532 15.6107L24.7833 15.6903C24.7734 15.6903 24.7587 15.6903 24.7489 15.6903H24.7587L24.626 15.7053H28.0614C28.1006 15.7053 28.135 15.7003 28.1744 15.6903C28.3267 15.6555 28.4545 15.551 28.5233 15.4116C28.5675 15.3319 28.5823 15.2373 28.5725 15.1378Z" fill="white"/>
</g>
<path d="M95.6006 19.3504C95.6006 11.1341 91.1846 5.77832 84.3766 5.77832H67.8779V49.4769H75.4219V33.6529H84.0699C91.0619 33.6529 95.6006 27.9928 95.6006 19.3504ZM88.0566 19.533C88.0566 24.0368 86.2166 26.1669 82.4139 26.1669H75.4219V13.2643H81.4326C86.1553 13.2643 88.0566 15.0293 88.0566 19.533ZM125.094 49.4769V27.0799C125.094 20.5068 121.476 16.2465 115.894 16.2465C112.092 16.2465 109.27 18.0724 107.86 21.5415V5.77832H100.868V49.4769H107.86V30.9141C107.86 26.2887 110.068 23.4282 113.564 23.4282C116.753 23.4282 118.102 25.3149 118.102 29.8186V49.4769H125.094ZM157.415 33.3486C157.415 23.063 152.079 16.2465 143.922 16.2465C135.397 16.2465 130.061 22.8804 130.061 33.3486C130.061 43.6342 135.458 50.329 143.738 50.329C152.018 50.329 157.415 43.6342 157.415 33.3486ZM150.178 33.2877C150.178 39.6782 147.909 43.1473 143.738 43.1473C139.567 43.1473 137.298 39.6782 137.298 33.2877C137.298 26.8364 139.567 23.4282 143.799 23.4282C147.909 23.4282 150.178 26.9581 150.178 33.2877ZM174.288 49.7204V43.269C173.49 43.3908 173.184 43.3908 172.754 43.3908C170.301 43.3908 169.872 43.0256 169.872 40.7737V23.1847H174.288V17.0986H169.872V8.33451H162.88V17.0986H159.261V23.1847H162.88V42.843C162.88 47.9554 164.842 49.8421 169.994 49.8421H170.914C171.712 49.8421 171.896 49.8421 174.288 49.7204ZM204.014 33.3486C204.014 23.063 198.678 16.2465 190.521 16.2465C181.996 16.2465 176.66 22.8804 176.66 33.3486C176.66 43.6342 182.057 50.329 190.337 50.329C198.617 50.329 204.014 43.6342 204.014 33.3486ZM196.777 33.2877C196.777 39.6782 194.508 43.1473 190.337 43.1473C186.166 43.1473 183.897 39.6782 183.897 33.2877C183.897 26.8364 186.166 23.4282 190.398 23.4282C194.508 23.4282 196.777 26.9581 196.777 33.2877ZM240.997 49.4769L228.24 5.77832H219.53L206.65 49.4769H214.624L217.138 40.4694H230.448L232.778 49.4769H240.997ZM228.362 32.9834H219.162L223.824 15.4553L228.362 32.9834ZM276.435 26.7147C276.435 13.4469 271.038 5.77832 261.715 5.77832H245.769V49.4769H261.409C271.345 49.4769 276.435 39.5565 276.435 26.7147ZM268.769 26.9581C268.769 36.4525 265.702 41.9909 260.489 41.9909H253.129V13.2643H260.366C266.315 13.2643 268.769 18.1941 268.769 26.9581ZM314.572 49.4769L298.994 23.6716L313.714 5.77832H303.961L290.162 23.5499V5.77832H282.618V49.4769H290.162V34.6876L293.657 30.3055L304.882 49.4769H314.572ZM369.949 49.4769V27.0799C369.949 20.446 366.33 16.2465 360.687 16.2465C356.885 16.2465 354.37 18.0115 352.469 22.0284V17.0986H345.722V49.4769H352.714V30.9141C352.714 26.2887 354.922 23.4282 358.418 23.4282C361.607 23.4282 362.957 25.3149 362.957 29.8186V49.4769H369.949ZM400.981 47.7728V17.0986H394.235V22.0892C392.395 17.9506 390.064 16.2465 386.384 16.2465C379.637 16.2465 375.222 22.8804 375.222 32.9834C375.222 43.269 379.637 49.6595 386.691 49.6595C390.248 49.6595 392.088 48.3814 393.928 44.608V48.8074C393.928 53.9807 392.211 56.1717 388.102 56.1717C385.096 56.1717 383.87 55.1979 383.44 52.946H375.774C376.755 59.9451 381.11 62.6839 387.918 62.6839C396.259 62.6839 400.981 58.9105 400.981 47.7728ZM393.989 33.2269C393.989 39.0696 391.843 42.4778 388.102 42.4778C384.544 42.4778 382.459 39.0087 382.459 33.2269C382.459 27.3233 384.606 23.6716 388.102 23.6716C391.598 23.6716 393.989 27.5668 393.989 33.2269Z" fill="#0069FF"/>
<path d="M67.878 5.77831V5.33728H67.4336V5.77831H67.878ZM67.878 49.4769H67.4336V49.9179H67.878V49.4769ZM75.422 49.4769V49.9179H75.8665V49.4769H75.422ZM75.422 33.6529V33.2119H74.9776V33.6529H75.422ZM75.422 26.1669H74.9776V26.6079H75.422V26.1669ZM75.422 13.2643V12.8232H74.9776V13.2643H75.422ZM96.0452 19.3504C96.0452 15.1677 94.9212 11.6673 92.8852 9.20362C90.8425 6.73141 87.9083 5.33728 84.3767 5.33728V6.21933C87.6527 6.21933 90.3309 7.50311 92.198 9.76288C94.0723 12.0312 95.1563 15.3169 95.1563 19.3504H96.0452ZM84.3767 5.33728H67.878V6.21933H84.3767V5.33728ZM67.4336 5.77831V49.4769H68.3225V5.77831H67.4336ZM67.878 49.9179H75.422V49.0359H67.878V49.9179ZM75.8665 49.4769V33.6529H74.9776V49.4769H75.8665ZM75.422 34.0939H84.07V33.2119H75.422V34.0939ZM84.07 34.0939C87.6985 34.0939 90.71 32.62 92.8047 30.018C94.8918 27.4252 96.0452 23.7439 96.0452 19.3504H95.1563C95.1563 23.5993 94.0403 27.0693 92.11 29.4671C90.1874 31.8557 87.4336 33.2119 84.07 33.2119V34.0939ZM87.6123 19.533C87.6123 21.7374 87.1598 23.2727 86.322 24.2538C85.4976 25.2199 84.2314 25.7259 82.414 25.7259V26.6079C84.3994 26.6079 85.9545 26.0489 87.0003 24.824C88.0336 23.6141 88.5012 21.8323 88.5012 19.533H87.6123ZM82.414 25.7259H75.422V26.6079H82.414V25.7259ZM75.8665 26.1669V13.2643H74.9776V26.1669H75.8665ZM75.422 13.7053H81.4327V12.8232H75.422V13.7053ZM81.4327 13.7053C83.7558 13.7053 85.2687 14.1428 86.2096 15.0295C87.1447 15.9109 87.6123 17.329 87.6123 19.533H88.5012C88.5012 17.2333 88.0176 15.517 86.8216 14.3899C85.6314 13.2683 83.8323 12.8232 81.4327 12.8232V13.7053ZM125.094 49.4769V49.9179H125.539V49.4769H125.094ZM107.86 21.5414H107.415L108.272 21.7065L107.86 21.5414ZM107.86 5.77831H108.304V5.33728H107.86V5.77831ZM100.868 5.77831V5.33728H100.423V5.77831H100.868ZM100.868 49.4769H100.423V49.9179H100.868V49.4769ZM107.86 49.4769V49.9179H108.304V49.4769H107.86ZM118.102 49.4769H117.658V49.9179H118.102V49.4769ZM125.539 49.4769V27.0798H124.65V49.4769H125.539ZM125.539 27.0798C125.539 23.7162 124.613 20.8987 122.927 18.9141C121.235 16.9219 118.808 15.8055 115.894 15.8055V16.6875C118.562 16.6875 120.735 17.7012 122.247 19.4825C123.766 21.2713 124.65 23.8704 124.65 27.0798H125.539ZM115.894 15.8055C113.92 15.8055 112.176 16.2801 110.735 17.2251C109.294 18.1707 108.182 19.57 107.447 21.3764L108.272 21.7065C108.948 20.0438 109.953 18.7956 111.225 17.961C112.498 17.1258 114.066 16.6875 115.894 16.6875V15.8055ZM108.304 21.5414V5.77831H107.415V21.5414H108.304ZM107.86 5.33728H100.868V6.21933H107.86V5.33728ZM100.423 5.77831V49.4769H101.312V5.77831H100.423ZM100.868 49.9179H107.86V49.0359H100.868V49.9179ZM108.304 49.4769V30.9141H107.415V49.4769H108.304ZM108.304 30.9141C108.304 28.6649 108.842 26.8973 109.755 25.7032C110.658 24.522 111.952 23.8692 113.564 23.8692V22.9871C111.679 22.9871 110.122 23.7645 109.046 25.17C107.982 26.5625 107.415 28.5379 107.415 30.9141H108.304ZM113.564 23.8692C115.063 23.8692 116.038 24.3061 116.666 25.1888C117.32 26.1087 117.658 27.591 117.658 29.8186H118.547C118.547 27.5425 118.21 25.8297 117.392 24.6801C116.548 23.4935 115.254 22.9871 113.564 22.9871V23.8692ZM117.658 29.8186V49.4769H118.547V29.8186H117.658ZM118.102 49.9179H125.094V49.0359H118.102V49.9179ZM157.86 33.3486C157.86 28.1348 156.508 23.7553 154.078 20.6689C151.641 17.5727 148.138 15.8055 143.922 15.8055V16.6875C147.863 16.6875 151.108 18.3285 153.378 21.212C155.655 24.1052 156.971 28.2768 156.971 33.3486H157.86ZM143.922 15.8055C139.532 15.8055 135.937 17.519 133.448 20.5959C130.968 23.6623 129.616 28.0448 129.616 33.3486H130.505C130.505 28.1842 131.822 24.0156 134.141 21.148C136.452 18.291 139.787 16.6875 143.922 16.6875V15.8055ZM129.616 33.3486C129.616 38.5637 130.985 42.9144 133.447 45.9712C135.918 49.0376 139.466 50.77 143.738 50.77V49.8879C139.73 49.8879 136.44 48.2729 134.142 45.4203C131.836 42.5585 130.505 38.4191 130.505 33.3486H129.616ZM143.738 50.77C148.01 50.77 151.558 49.0376 154.029 45.9712C156.492 42.9144 157.86 38.5637 157.86 33.3486H156.971C156.971 38.4191 155.641 42.5585 153.335 45.4203C151.037 48.2729 147.746 49.8879 143.738 49.8879V50.77ZM149.734 33.2877C149.734 36.4428 149.172 38.8094 148.149 40.3741C147.145 41.9115 145.677 42.7063 143.738 42.7063V43.5883C145.97 43.5883 147.722 42.6485 148.895 40.854C150.05 39.0863 150.622 36.5231 150.622 33.2877H149.734ZM143.738 42.7063C141.8 42.7063 140.332 41.9115 139.327 40.3741C138.305 38.8094 137.742 36.4428 137.742 33.2877H136.854C136.854 36.5231 137.426 39.0863 138.581 40.854C139.754 42.6485 141.506 43.5883 143.738 43.5883V42.7063ZM137.742 33.2877C137.742 30.1013 138.305 27.7361 139.334 26.1806C140.343 24.6531 141.825 23.8692 143.799 23.8692V22.9871C141.542 22.9871 139.773 23.9073 138.59 25.6968C137.426 27.4582 136.854 30.0228 136.854 33.2877H137.742ZM143.799 23.8692C145.702 23.8692 147.156 24.6747 148.156 26.2225C149.172 27.7956 149.734 30.1639 149.734 33.2877H150.622C150.622 30.0819 150.05 27.5204 148.904 25.7464C147.742 23.9466 146.006 22.9871 143.799 22.9871V23.8692ZM174.288 49.7203L174.311 50.1609L174.732 50.1393V49.7203H174.288ZM174.288 43.269H174.732V42.7548L174.22 42.8333L174.288 43.269ZM169.872 23.1847V22.7437H169.427V23.1847H169.872ZM174.288 23.1847V23.6257H174.732V23.1847H174.288ZM174.288 17.0986H174.732V16.6575H174.288V17.0986ZM169.872 17.0986H169.427V17.5396H169.872V17.0986ZM169.872 8.33449H170.316V7.89347H169.872V8.33449ZM162.88 8.33449V7.89347H162.435V8.33449H162.88ZM162.88 17.0986V17.5396H163.324V17.0986H162.88ZM159.261 17.0986V16.6575H158.817V17.0986H159.261ZM159.261 23.1847H158.817V23.6257H159.261V23.1847ZM162.88 23.1847H163.324V22.7437H162.88V23.1847ZM174.732 49.7203V43.269H173.843V49.7203H174.732ZM174.22 42.8333C173.451 42.9506 173.167 42.9497 172.754 42.9497V43.8318C173.2 43.8318 173.53 43.8309 174.355 43.7047L174.22 42.8333ZM172.754 42.9497C172.146 42.9497 171.693 42.9263 171.349 42.8646C171.007 42.8028 170.814 42.7098 170.692 42.6C170.574 42.4941 170.477 42.3314 170.411 42.0368C170.344 41.7351 170.316 41.3298 170.316 40.7737H169.427C169.427 41.3435 169.454 41.8282 169.543 42.2282C169.635 42.6357 169.798 42.9863 170.094 43.2531C170.386 43.5164 170.761 43.6554 171.19 43.7325C171.616 43.8093 172.136 43.8318 172.754 43.8318V42.9497ZM170.316 40.7737V23.1847H169.427V40.7737H170.316ZM169.872 23.6257H174.288V22.7437H169.872V23.6257ZM174.732 23.1847V17.0986H173.843V23.1847H174.732ZM174.288 16.6575H169.872V17.5396H174.288V16.6575ZM170.316 17.0986V8.33449H169.427V17.0986H170.316ZM169.872 7.89347H162.88V8.77552H169.872V7.89347ZM162.435 8.33449V17.0986H163.324V8.33449H162.435ZM162.88 16.6575H159.261V17.5396H162.88V16.6575ZM158.817 17.0986V23.1847H159.706V17.0986H158.817ZM159.261 23.6257H162.88V22.7437H159.261V23.6257ZM162.435 23.1847V42.843H163.324V23.1847H162.435ZM162.435 42.843C162.435 45.4371 162.93 47.337 164.193 48.5737C165.455 49.809 167.383 50.2831 169.994 50.2831V49.401C167.454 49.401 165.825 48.9318 164.818 47.9456C163.811 46.9608 163.324 45.3612 163.324 42.843H162.435ZM169.994 50.2831H170.914V49.401H169.994V50.2831ZM170.914 50.2831C171.724 50.2831 171.917 50.2826 174.311 50.1609L174.265 49.2797C171.874 49.4015 171.7 49.401 170.914 49.401V50.2831ZM204.459 33.3486C204.459 28.1348 203.107 23.7553 200.677 20.6689C198.24 17.5727 194.738 15.8055 190.521 15.8055V16.6875C194.462 16.6875 197.706 18.3285 199.977 21.212C202.254 24.1052 203.57 28.2768 203.57 33.3486H204.459ZM190.521 15.8055C186.131 15.8055 182.535 17.519 180.047 20.5959C177.567 23.6623 176.215 28.0448 176.215 33.3486H177.104C177.104 28.1842 178.421 24.0156 180.74 21.148C183.051 18.291 186.386 16.6875 190.521 16.6875V15.8055ZM176.215 33.3486C176.215 38.5637 177.583 42.9144 180.046 45.9712C182.517 49.0376 186.065 50.77 190.337 50.77V49.8879C186.33 49.8879 183.039 48.2729 180.741 45.4203C178.435 42.5585 177.104 38.4191 177.104 33.3486H176.215ZM190.337 50.77C194.61 50.77 198.158 49.0376 200.628 45.9712C203.091 42.9144 204.459 38.5637 204.459 33.3486H203.57C203.57 38.4191 202.239 42.5585 199.934 45.4203C197.635 48.2729 194.345 49.8879 190.337 49.8879V50.77ZM196.333 33.2877C196.333 36.4428 195.77 38.8094 194.748 40.3741C193.744 41.9115 192.276 42.7063 190.337 42.7063V43.5883C192.569 43.5883 194.322 42.6485 195.494 40.854C196.649 39.0863 197.222 36.5231 197.222 33.2877H196.333ZM190.337 42.7063C188.398 42.7063 186.931 41.9115 185.926 40.3741C184.904 38.8094 184.342 36.4428 184.342 33.2877H183.453C183.453 36.5231 184.025 39.0863 185.18 40.854C186.353 42.6485 188.105 43.5883 190.337 43.5883V42.7063ZM184.342 33.2877C184.342 30.1013 184.904 27.7361 185.933 26.1806C186.942 24.6531 188.424 23.8692 190.398 23.8692V22.9871C188.141 22.9871 186.372 23.9073 185.189 25.6968C184.025 27.4582 183.453 30.0228 183.453 33.2877H184.342ZM190.398 23.8692C192.301 23.8692 193.755 24.6747 194.754 26.2225C195.771 27.7956 196.333 30.1639 196.333 33.2877H197.222C197.222 30.0819 196.649 27.5204 195.503 25.7464C194.341 23.9466 192.605 22.9871 190.398 22.9871V23.8692ZM240.997 49.4769V49.9179H241.589L241.424 49.3543L240.997 49.4769ZM228.24 5.77831L228.666 5.65557L228.574 5.33728H228.24V5.77831ZM219.53 5.77831V5.33728H219.197L219.104 5.65451L219.53 5.77831ZM206.65 49.4769L206.224 49.353L206.057 49.9179H206.65V49.4769ZM214.624 49.4769V49.9179H214.962L215.052 49.5946L214.624 49.4769ZM217.138 40.4694V40.0284H216.8L216.71 40.3516L217.138 40.4694ZM230.448 40.4694L230.878 40.3596L230.793 40.0284H230.448V40.4694ZM232.778 49.4769L232.348 49.5867L232.434 49.9179H232.778V49.4769ZM228.362 32.9834V33.4244H228.935L228.793 32.8736L228.362 32.9834ZM219.162 32.9834L218.733 32.871L218.586 33.4244H219.162V32.9834ZM223.824 15.4553L224.254 15.3455L223.83 13.7053L223.394 15.3427L223.824 15.4553ZM241.424 49.3543L228.666 5.65557L227.813 5.901L240.57 49.5995L241.424 49.3543ZM228.24 5.33728H219.53V6.21933H228.24V5.33728ZM219.104 5.65451L206.224 49.353L207.077 49.6008L219.957 5.9021L219.104 5.65451ZM206.65 49.9179H214.624V49.0359H206.65V49.9179ZM215.052 49.5946L217.567 40.5871L216.71 40.3516L214.195 49.3591L215.052 49.5946ZM217.138 40.9104H230.448V40.0284H217.138V40.9104ZM230.017 40.5792L232.348 49.5867L233.209 49.3671L230.878 40.3596L230.017 40.5792ZM232.778 49.9179H240.997V49.0359H232.778V49.9179ZM228.362 32.5424H219.162V33.4244H228.362V32.5424ZM219.592 33.0959L224.254 15.5678L223.394 15.3427L218.733 32.871L219.592 33.0959ZM223.393 15.5651L227.932 33.0932L228.793 32.8736L224.254 15.3455L223.393 15.5651ZM245.769 5.77831V5.33728H245.324V5.77831H245.769ZM245.769 49.4769H245.324V49.9179H245.769V49.4769ZM253.129 41.9909H252.684V42.4319H253.129V41.9909ZM253.129 13.2643V12.8232H252.684V13.2643H253.129ZM276.88 26.7147C276.88 20.0306 275.522 14.6955 272.936 11.0187C270.336 7.3215 266.518 5.33728 261.715 5.33728V6.21933C266.235 6.21933 269.778 8.06939 272.207 11.5235C274.65 14.9978 275.991 20.1309 275.991 26.7147H276.88ZM261.715 5.33728H245.769V6.21933H261.715V5.33728ZM245.324 5.77831V49.4769H246.213V5.77831H245.324ZM245.769 49.9179H261.409V49.0359H245.769V49.9179ZM261.409 49.9179C266.554 49.9179 270.445 47.337 273.027 43.1416C275.599 38.9637 276.88 33.1845 276.88 26.7147H275.991C275.991 33.0866 274.726 38.6885 272.269 42.6816C269.822 46.6565 266.199 49.0359 261.409 49.0359V49.9179ZM268.324 26.9581C268.324 31.6687 267.562 35.3429 266.194 37.8232C264.837 40.2828 262.901 41.5499 260.489 41.5499V42.4319C263.289 42.4319 265.494 40.9298 266.974 38.2466C268.442 35.5841 269.213 31.7419 269.213 26.9581H268.324ZM260.489 41.5499H253.129V42.4319H260.489V41.5499ZM253.573 41.9909V13.2643H252.684V41.9909H253.573ZM253.129 13.7053H260.366V12.8232H253.129V13.7053ZM260.366 13.7053C263.187 13.7053 265.139 14.8586 266.414 17.0455C267.711 19.2722 268.324 22.6014 268.324 26.9581H269.213C269.213 22.5508 268.599 19.033 267.183 16.6039C265.744 14.1349 263.494 12.8232 260.366 12.8232V13.7053ZM314.572 49.4769V49.9179H315.357L314.954 49.2502L314.572 49.4769ZM298.994 23.6716L298.649 23.3927L298.452 23.6326L298.612 23.8982L298.994 23.6716ZM313.714 5.77831L314.058 6.05721L314.65 5.33728H313.714V5.77831ZM303.962 5.77831V5.33728H303.743L303.61 5.5091L303.962 5.77831ZM290.162 23.5499H289.717V24.8448L290.514 23.8191L290.162 23.5499ZM290.162 5.77831H290.606V5.33728H290.162V5.77831ZM282.618 5.77831V5.33728H282.173V5.77831H282.618ZM282.618 49.4769H282.173V49.9179H282.618V49.4769ZM290.162 49.4769V49.9179H290.606V49.4769H290.162ZM290.162 34.6875L289.813 34.4137L289.717 34.5341V34.6875H290.162ZM293.658 30.3055L294.042 30.0841L293.714 29.524L293.309 30.0316L293.658 30.3055ZM304.882 49.4769L304.497 49.6983L304.626 49.9179H304.882V49.4769ZM314.954 49.2502L299.375 23.445L298.612 23.8982L314.191 49.7036L314.954 49.2502ZM299.338 23.9505L314.058 6.05721L313.369 5.4994L298.649 23.3927L299.338 23.9505ZM313.714 5.33728H303.962V6.21933H313.714V5.33728ZM303.61 5.5091L289.81 23.2807L290.514 23.8191L304.314 6.04751L303.61 5.5091ZM290.606 23.5499V5.77831H289.717V23.5499H290.606ZM290.162 5.33728H282.618V6.21933H290.162V5.33728ZM282.173 5.77831V49.4769H283.062V5.77831H282.173ZM282.618 49.9179H290.162V49.0359H282.618V49.9179ZM290.606 49.4769V34.6875H289.717V49.4769H290.606ZM290.51 34.9614L294.006 30.5794L293.309 30.0316L289.813 34.4137L290.51 34.9614ZM293.273 30.5269L304.497 49.6983L305.266 49.2555L294.042 30.0841L293.273 30.5269ZM304.882 49.9179H314.572V49.0359H304.882V49.9179ZM369.949 49.4769V49.9179H370.393V49.4769H369.949ZM352.469 22.0283H352.024L352.871 22.2158L352.469 22.0283ZM352.469 17.0986H352.913V16.6575H352.469V17.0986ZM345.722 17.0986V16.6575H345.278V17.0986H345.722ZM345.722 49.4769H345.278V49.9179H345.722V49.4769ZM352.714 49.4769V49.9179H353.158V49.4769H352.714ZM362.957 49.4769H362.512V49.9179H362.957V49.4769ZM370.393 49.4769V27.0798H369.504V49.4769H370.393ZM370.393 27.0798C370.393 23.6866 369.467 20.8679 367.772 18.8898C366.071 16.9041 363.628 15.8055 360.687 15.8055V16.6875C363.389 16.6875 365.577 17.6886 367.095 19.4611C368.62 21.2412 369.504 23.8391 369.504 27.0798H370.393ZM360.687 15.8055C358.712 15.8055 357.038 16.2654 355.608 17.2713C354.183 18.2728 353.037 19.7898 352.066 21.8409L352.871 22.2158C353.801 20.25 354.863 18.8761 356.122 17.9909C357.374 17.1101 358.859 16.6875 360.687 16.6875V15.8055ZM352.913 22.0283V17.0986H352.024V22.0283H352.913ZM352.469 16.6575H345.722V17.5396H352.469V16.6575ZM345.278 17.0986V49.4769H346.166V17.0986H345.278ZM345.722 49.9179H352.714V49.0359H345.722V49.9179ZM353.158 49.4769V30.9141H352.27V49.4769H353.158ZM353.158 30.9141C353.158 28.6649 353.696 26.8973 354.609 25.7032C355.512 24.522 356.806 23.8692 358.418 23.8692V22.9871C356.534 22.9871 354.975 23.7645 353.901 25.17C352.836 26.5625 352.27 28.5379 352.27 30.9141H353.158ZM358.418 23.8692C359.917 23.8692 360.892 24.3061 361.52 25.1888C362.174 26.1087 362.512 27.591 362.512 29.8186H363.401C363.401 27.5425 363.064 25.8297 362.246 24.6801C361.402 23.4935 360.108 22.9871 358.418 22.9871V23.8692ZM362.512 29.8186V49.4769H363.401V29.8186H362.512ZM362.957 49.9179H369.949V49.0359H362.957V49.9179ZM400.982 17.0986H401.426V16.6575H400.982V17.0986ZM394.235 17.0986V16.6575H393.79V17.0986H394.235ZM394.235 22.0892L393.828 22.2672L394.679 22.0892H394.235ZM393.928 44.608H394.373L393.528 44.4157L393.928 44.608ZM383.44 52.946L383.877 52.864L383.809 52.505H383.44V52.946ZM375.774 52.946V52.505H375.263L375.334 53.0069L375.774 52.946ZM401.426 47.7728V17.0986H400.537V47.7728H401.426ZM400.982 16.6575H394.235V17.5396H400.982V16.6575ZM393.79 17.0986V22.0892H394.679V17.0986H393.79ZM394.642 21.9112C393.705 19.8038 392.622 18.2682 391.266 17.2625C389.9 16.2505 388.298 15.8055 386.384 15.8055V16.6875C388.15 16.6875 389.554 17.0945 390.734 17.9692C391.922 18.8503 392.926 20.236 393.828 22.2672L394.642 21.9112ZM386.384 15.8055C382.842 15.8055 379.921 17.5553 377.902 20.583C375.893 23.5979 374.777 27.875 374.777 32.9834H375.666C375.666 27.9888 376.759 23.8975 378.644 21.0696C380.52 18.2547 383.18 16.6875 386.384 16.6875V15.8055ZM374.777 32.9834C374.777 38.1813 375.892 42.4469 377.944 45.4274C380.008 48.4237 383.009 50.1005 386.691 50.1005V49.2184C383.32 49.2184 380.586 47.7 378.678 44.9299C376.759 42.1435 375.666 38.0711 375.666 32.9834H374.777ZM386.691 50.1005C388.524 50.1005 389.974 49.7706 391.209 48.9097C392.434 48.0555 393.395 46.7139 394.329 44.8003L393.528 44.4157C392.622 46.2755 391.742 47.4596 390.698 48.1878C389.664 48.9093 388.415 49.2184 386.691 49.2184V50.1005ZM393.484 44.608V48.8074H394.373V44.608H393.484ZM393.484 48.8074C393.484 51.3645 393.056 53.0814 392.206 54.1575C391.378 55.2071 390.078 55.7306 388.102 55.7306V56.6127C390.235 56.6127 391.849 56.0407 392.906 54.7013C393.942 53.3888 394.373 51.4236 394.373 48.8074H393.484ZM388.102 55.7306C386.635 55.7306 385.689 55.4907 385.064 55.0453C384.455 54.6104 384.08 53.9273 383.877 52.864L383.004 53.028C383.23 54.2166 383.683 55.1463 384.546 55.7615C385.393 56.3657 386.563 56.6127 388.102 56.6127V55.7306ZM383.44 52.505H375.774V53.387H383.44V52.505ZM375.334 53.0069C375.836 56.5897 377.213 59.1428 379.391 60.7905C381.56 62.4303 384.461 63.1249 387.918 63.1249V62.2428C384.567 62.2428 381.886 61.568 379.93 60.0888C377.984 58.6171 376.693 56.3013 376.214 52.8851L375.334 53.0069ZM387.918 63.1249C392.147 63.1249 395.558 62.1687 397.901 59.7078C400.237 57.2535 401.426 53.3905 401.426 47.7728H400.537C400.537 53.2926 399.365 56.8852 397.254 59.1023C395.15 61.3122 392.029 62.2428 387.918 62.2428V63.1249ZM393.545 33.2269C393.545 36.1045 393.015 38.3238 392.073 39.8083C391.145 41.2698 389.811 42.0368 388.102 42.0368V42.9188C390.134 42.9188 391.744 41.9817 392.825 40.2784C393.891 38.5981 394.434 36.1919 394.434 33.2269H393.545ZM388.102 42.0368C386.497 42.0368 385.222 41.2668 384.327 39.7929C383.419 38.2978 382.903 36.075 382.903 33.2269H382.014C382.014 36.1606 382.542 38.5633 383.566 40.2484C384.602 41.9543 386.149 42.9188 388.102 42.9188V42.0368ZM382.903 33.2269C382.903 30.3192 383.434 28.017 384.353 26.458C385.262 24.9163 386.54 24.1126 388.102 24.1126V23.2306C386.168 23.2306 384.624 24.2527 383.586 26.0126C382.558 27.7555 382.014 30.231 382.014 33.2269H382.903ZM388.102 24.1126C389.658 24.1126 391.002 24.9719 391.978 26.5568C392.958 28.1493 393.545 30.4515 393.545 33.2269H394.434C394.434 30.3421 393.826 27.8666 392.736 26.0968C391.642 24.3188 390.042 23.2306 388.102 23.2306V24.1126Z" fill="#0069FF"/>
<path d="M334.864 40.7291H324.755C324.501 40.7291 324.342 41.0012 324.466 41.2262L325.193 42.1082H334.421L335.148 41.2262C335.278 41.0012 335.118 40.7291 334.864 40.7291Z" fill="#0069FF"/>
<path d="M337.064 47.0208H322.557C322.332 47.0208 322.119 47.0798 321.942 47.1861C321.575 47.3992 321.333 47.7961 321.333 48.2517H322.557H323.781H335.834H337.058H338.282C338.288 47.5712 337.738 47.0208 337.064 47.0208Z" fill="#0069FF"/>
<path d="M332.21 48.2517H321.333V49.4769H332.21H338.288V48.2517H332.21Z" fill="#0069FF"/>
<path d="M336.839 44.1502C336.532 43.9667 336.236 43.7713 335.953 43.5583C335.669 43.3453 335.397 43.1142 335.143 42.8716C335.013 42.7473 334.882 42.6172 334.758 42.4871C334.711 42.4337 334.433 42.1201 334.433 42.1201H329.852H329.805H329.757H325.176C325.176 42.1201 324.898 42.4337 324.85 42.4871C324.726 42.6172 324.596 42.7473 324.466 42.8716C324.212 43.1142 323.94 43.3453 323.656 43.5583C323.373 43.7713 323.077 43.9724 322.769 44.1502C322.113 44.5466 321.333 44.9017 321.333 45.7956C321.333 46.4699 321.883 47.0208 322.557 47.0208H329.763H329.81H329.857H337.064C337.738 47.0208 338.288 46.4699 338.288 45.7956C338.288 44.9017 337.507 44.5466 336.839 44.1502Z" fill="#0069FF"/>
<path d="M321.972 45.7542C321.972 45.3458 322.196 44.9904 322.533 44.8069C322.054 44.825 321.67 45.2215 321.67 45.7008C321.67 46.1211 321.954 46.47 322.344 46.571C322.119 46.3694 321.972 46.0735 321.972 45.7542Z" fill="#0069FF"/>
<path d="M333.866 25.9915H325.737C325.264 25.9915 324.88 26.3763 324.88 26.8496C324.88 27.3232 325.258 27.7021 325.731 27.7078H333.83C333.895 27.7078 333.954 27.7021 334.013 27.684C334.398 27.6015 334.681 27.2579 334.681 26.8496C334.687 26.4412 334.427 25.9915 333.866 25.9915Z" fill="#0069FF"/>
<path d="M325.358 26.8973C325.358 26.6071 325.518 26.3526 325.761 26.2225C325.418 26.234 325.146 26.5185 325.146 26.8616C325.146 27.1575 325.347 27.412 325.625 27.483C325.465 27.3352 325.358 27.128 325.358 26.8973Z" fill="#0069FF"/>
<path d="M333.345 24.7722H326.068C325.731 24.7722 325.453 25.0445 325.453 25.3878C325.453 25.7251 325.725 26.0033 326.068 26.0033H333.351C333.381 26.0033 333.41 25.9974 333.434 25.9915C333.706 25.9323 333.913 25.6837 333.913 25.3937C333.913 25.0977 333.712 24.7722 333.345 24.7722Z" fill="#0069FF"/>
<path d="M325.199 40.7411H334.427C333.245 38.0539 332.477 35.0117 332.21 31.8866C332.199 31.626 332.187 31.3596 332.187 31.0936C332.187 29.9276 332.329 28.791 332.595 27.7079H329.485H329.225H327.085C327.351 28.791 327.493 29.9276 327.493 31.0936C327.493 31.3715 327.481 31.644 327.469 31.9162C327.191 35.0413 326.405 38.0363 325.199 40.7411Z" fill="#0069FF"/>
<path d="M335.195 15.474C335.195 14.9117 334.906 14.3908 334.445 14.0771C334.179 13.8996 333.895 13.8286 333.587 13.7634C333.215 13.6865 332.837 13.6214 332.459 13.5682C331.755 13.4675 331.04 13.4083 330.324 13.3906L330.047 13.3846C329.97 13.3846 329.887 13.3846 329.81 13.3846C329.733 13.3846 329.651 13.3846 329.574 13.3846L329.296 13.3906C328.58 13.4083 327.871 13.4675 327.162 13.5682C326.783 13.6214 326.405 13.6865 326.032 13.7634C325.725 13.8286 325.441 13.8996 325.175 14.0771C324.714 14.3908 324.425 14.9176 324.425 15.474C324.425 15.6338 324.448 15.8054 324.495 15.9534C324.495 15.9534 326.245 21.0671 327.079 23.5056C327.132 23.7068 327.162 23.914 327.162 24.133C327.162 24.3579 327.132 24.571 327.073 24.7722L332.577 24.79C332.518 24.5828 332.482 24.3579 332.482 24.133C332.482 23.8608 332.529 23.5471 332.612 23.3044H332.606C333.463 20.7949 335.119 15.9534 335.119 15.9534C335.172 15.8113 335.195 15.6338 335.195 15.474Z" fill="#0069FF"/>
<path d="M332.512 24.1213H327.091C326.902 24.1213 326.742 23.9673 326.742 23.7721C326.742 23.5826 326.896 23.4229 327.091 23.4229H332.512C332.701 23.4229 332.86 23.5767 332.86 23.7721C332.855 23.9614 332.701 24.1213 332.512 24.1213Z" fill="#0069FF"/>
<path d="M328.681 13.941C328.249 13.9647 327.818 14.0121 327.386 14.0713C327.056 14.1186 326.725 14.1778 326.393 14.2429C326.121 14.2962 325.873 14.3613 325.643 14.5211C325.235 14.7993 324.986 15.255 324.986 15.7522C324.986 15.8883 325.01 16.0481 325.051 16.1724C325.051 16.1724 325.235 16.7169 325.513 17.5159C325.684 15.7462 326.985 14.3139 328.681 13.941Z" fill="#0069FF"/>
<path d="M332.152 12.2957H327.517C327.18 12.2957 326.902 12.5679 326.902 12.9112C326.902 13.2486 327.174 13.5267 327.517 13.5267H332.152C332.181 13.5267 332.211 13.5208 332.234 13.5149C332.506 13.4557 332.713 13.2071 332.713 12.9171C332.719 12.6212 332.513 12.2957 332.152 12.2957Z" fill="#0069FF"/>
<path d="M330.762 7.86255L331.696 5.00973L329.828 4.12195L327.954 5.00973L328.888 7.87441L326.707 7.22333V8.50768V8.81547V10.0998L328.888 9.44879L327.954 12.3134L329.828 13.2012L331.696 12.3134L330.762 9.46061L332.914 10.0998V8.81547V8.50768V7.22333L330.762 7.86255Z" fill="#0069FF"/>
<path d="M330.717 3.35137C330.797 2.85124 330.458 2.38001 329.959 2.29886C329.459 2.21767 328.988 2.5573 328.908 3.05747C328.826 3.55759 329.165 4.02882 329.665 4.10997C330.164 4.19116 330.635 3.85153 330.717 3.35137Z" fill="#0069FF"/>
<path d="M330.289 2.42322C330.378 2.56527 330.431 2.73688 330.431 2.91448C330.431 3.42346 330.024 3.83185 329.515 3.83185C329.338 3.83185 329.178 3.78449 329.036 3.69571C329.202 3.95023 329.485 4.11596 329.805 4.11596C330.313 4.11596 330.721 3.70757 330.721 3.19854C330.727 2.87302 330.55 2.583 330.289 2.42322Z" fill="#0069FF"/>
<path d="M329.053 3.2874C329.053 2.8435 329.414 2.47657 329.863 2.47657C330.123 2.47657 330.354 2.60085 330.502 2.79023C330.36 2.54757 330.1 2.38184 329.798 2.38184C329.355 2.38184 328.988 2.7429 328.988 3.19271C328.988 3.37617 329.053 3.54782 329.154 3.68397C329.095 3.5715 329.053 3.43536 329.053 3.2874Z" fill="#0069FF"/>
<path d="M331.336 11.2125C331.336 11.2125 329.355 12.2246 327.954 12.3134C331.058 12.3134 331.696 12.3134 331.696 12.3134L331.336 11.2125Z" fill="#0069FF"/>
<path d="M334.51 17.7408C333.949 19.1495 332.027 22.5527 327.091 23.5116H332.559C332.577 23.4405 332.595 23.3695 332.618 23.3103H332.613C332.754 22.896 332.914 22.4226 333.085 21.9194H333.079C333.47 20.7771 334.014 19.1968 334.51 17.7408Z" fill="#0069FF"/>
<path d="M332.713 12.846C332.707 12.7632 332.689 12.6863 332.654 12.6152C332.612 12.5323 332.547 12.4613 332.476 12.4022C332.447 12.3785 332.411 12.3548 332.376 12.3371C332.364 12.3311 332.293 12.2956 332.281 12.3075C332.252 12.343 332.192 12.3844 332.128 12.4317C332.033 12.5028 331.844 12.6211 331.631 12.7277C331.17 12.9644 330.407 13.2485 329.201 13.4083L328.155 13.503C328.143 13.503 328.125 13.503 328.113 13.503H328.125L327.966 13.5208H332.098C332.145 13.5208 332.187 13.5149 332.234 13.503C332.417 13.4616 332.571 13.3373 332.654 13.1716C332.707 13.0769 332.724 12.9644 332.713 12.846Z" fill="#0069FF"/>
<defs>
<filter id="filter0_d_2974_1323" x="19.1113" y="6.25623" width="16.0957" height="41.6925" filterUnits="userSpaceOnUse" color-interpolation-filters="sRGB">
<feFlood flood-opacity="0" result="BackgroundImageFix"/>
<feColorMatrix in="SourceAlpha" type="matrix" values="0 0 0 0 0 0 0 0 0 0 0 0 0 0 0 0 0 0 127 0" result="hardAlpha"/>
<feOffset dx="1" dy="1"/>
<feGaussianBlur stdDeviation="0.5"/>
<feComposite in2="hardAlpha" operator="out"/>
<feColorMatrix type="matrix" values="0 0 0 0 0 0 0 0 0 0 0 0 0 0 0 0 0 0 0.25 0"/>
<feBlend mode="normal" in2="BackgroundImageFix" result="effect1_dropShadow_2974_1323"/>
<feBlend mode="normal" in="SourceGraphic" in2="effect1_dropShadow_2974_1323" result="shape"/>
</filter>
</defs>
</svg>
