<svg xmlns="http://www.w3.org/2000/svg" id="Businessteamworkingtogetherfortargetachievement" viewBox="0 0 1024 768">
  <g fill="#000000" class="color000000 svgShape">
    <g fill="#000000" class="color000000 svgShape">
      <path d="M270.8,92.53h331.58v297.24c0,9.19-7.46,16.65-16.65,16.65h-298.28c-9.19,0-16.65-7.46-16.65-16.65V92.53h0Z" stroke="#002c49" stroke-linejoin="round" stroke-linecap="round" fill="#ffffff" class="colorffffff svgShape colorStroke003149 svgStroke"></path>
      <path d="M287.45,62.17h298.28c9.19,0,16.65,7.46,16.65,16.65v13.71h-331.58v-13.71c0-9.19,7.46-16.65,16.65-16.65Z" stroke="#002c49" stroke-linejoin="round" stroke-linecap="round" fill="#002c49" class="color003149 svgShape colorStroke003149 svgStroke"></path>
      <g fill="#000000" class="color000000 svgShape">
        <rect width="298.14" height="69.83" x="287.52" y="312.84" stroke="#002c49" stroke-linejoin="round" stroke-linecap="round" fill="#9ecbda" class="color669cbd svgShape colorStroke003149 svgStroke"></rect>
        <circle cx="322.64" cy="347.75" r="24.09" stroke="#002c49" stroke-linejoin="round" stroke-linecap="round" fill="#35aeff" class="color25a18e svgShape colorStroke003149 svgStroke"></circle>
        <g fill="#000000" class="color000000 svgShape">
          <circle cx="322.64" cy="341.65" r="6.91" stroke="#002c49" stroke-linejoin="round" stroke-linecap="round" fill="#ffffff" class="colorffffff svgShape colorStroke003149 svgStroke"></circle>
          <path d="M322.64,350.59c-6.97,0-12.62,5.65-12.62,12.62h25.25c0-6.97-5.65-12.62-12.62-12.62Z" stroke="#002c49" stroke-linejoin="round" stroke-linecap="round" fill="#ffffff" class="colorffffff svgShape colorStroke003149 svgStroke"></path>
        </g>
        <g fill="#000000" class="color000000 svgShape">
          <rect width="116.81" height="9.21" x="361.13" y="328.9" stroke="#002c49" stroke-linejoin="round" stroke-linecap="round" fill="#002c49" class="color003149 svgShape colorStroke003149 svgStroke"></rect>
          <line x1="361.13" x2="520.43" y1="347.05" y2="347.05" stroke="#002c49" stroke-linejoin="round" stroke-linecap="round" fill="none" class="colorStroke003149 svgStroke"></line>
          <line x1="361.13" x2="479.84" y1="356.83" y2="356.83" stroke="#002c49" stroke-linejoin="round" stroke-linecap="round" fill="none" class="colorStroke003149 svgStroke"></line>
          <line x1="361.13" x2="575.56" y1="366.61" y2="366.61" stroke="#002c49" stroke-linejoin="round" stroke-linecap="round" fill="none" class="colorStroke003149 svgStroke"></line>
        </g>
      </g>
      <g fill="#000000" class="color000000 svgShape">
        <rect width="135.98" height="91.27" x="287.52" y="208.61" rx="4.38" ry="4.38" stroke="#002c49" stroke-linejoin="round" stroke-linecap="round" fill="#35aeff" class="color25a18e svgShape colorStroke003149 svgStroke"></rect>
        <g fill="#000000" class="color000000 svgShape">
          <polygon points="375.97 248.01 364.79 263.58 342.96 233.16 312.18 276.04 355.85 276.04 373.74 276.04 396.1 276.04 375.97 248.01" stroke="#002c49" stroke-linejoin="round" stroke-linecap="round" fill="#ffffff" class="colorffffff svgShape colorStroke003149 svgStroke"></polygon>
          <circle cx="364.19" cy="238.21" r="5.82" stroke="#002c49" stroke-linejoin="round" stroke-linecap="round" fill="#ffffff" class="colorffffff svgShape colorStroke003149 svgStroke"></circle>
        </g>
      </g>
      <g fill="#000000" class="color000000 svgShape">
        <rect width="194.38" height="194.38" x="438.67" y="105.5" rx="7.89" ry="7.89" stroke="#002c49" stroke-linejoin="round" stroke-linecap="round" fill="#9ecbda" class="color669cbd svgShape colorStroke003149 svgStroke"></rect>
        <rect width="64.32" height="58.19" x="447.86" y="116.83" rx="4.38" ry="4.38" stroke="#002c49" stroke-linejoin="round" stroke-linecap="round" fill="#ffffff" class="colorffffff svgShape colorStroke003149 svgStroke"></rect>
        <rect width="102" height="29.3" x="520.55" y="116.83" rx="3.51" ry="3.51" stroke="#002c49" stroke-linejoin="round" stroke-linecap="round" fill="#ffffff" class="colorffffff svgShape colorStroke003149 svgStroke"></rect>
        <line x1="447.86" x2="494.01" y1="186.96" y2="186.96" stroke="#002c49" stroke-linejoin="round" stroke-linecap="round" fill="none" class="colorStroke003149 svgStroke"></line>
        <line x1="504.83" x2="550.97" y1="186.96" y2="186.96" stroke="#002c49" stroke-linejoin="round" stroke-linecap="round" fill="none" class="colorStroke003149 svgStroke"></line>
        <line x1="561.8" x2="607.94" y1="186.96" y2="186.96" stroke="#002c49" stroke-linejoin="round" stroke-linecap="round" fill="none" class="colorStroke003149 svgStroke"></line>
        <line x1="447.86" x2="477.11" y1="200.03" y2="200.03" stroke="#002c49" stroke-linejoin="round" stroke-linecap="round" fill="none" class="colorStroke003149 svgStroke"></line>
        <line x1="483.7" x2="512.95" y1="200.03" y2="200.03" stroke="#002c49" stroke-linejoin="round" stroke-linecap="round" fill="none" class="colorStroke003149 svgStroke"></line>
        <line x1="519.53" x2="548.78" y1="200.03" y2="200.03" stroke="#002c49" stroke-linejoin="round" stroke-linecap="round" fill="none" class="colorStroke003149 svgStroke"></line>
        <line x1="555.36" x2="584.61" y1="200.03" y2="200.03" stroke="#002c49" stroke-linejoin="round" stroke-linecap="round" fill="none" class="colorStroke003149 svgStroke"></line>
        <line x1="532.24" x2="584.61" y1="213.1" y2="213.1" stroke="#002c49" stroke-linejoin="round" stroke-linecap="round" fill="none" class="colorStroke003149 svgStroke"></line>
        <line x1="591.2" x2="620.45" y1="200.03" y2="200.03" stroke="#002c49" stroke-linejoin="round" stroke-linecap="round" fill="none" class="colorStroke003149 svgStroke"></line>
        <line x1="447.86" x2="524.74" y1="213.1" y2="213.1" stroke="#002c49" stroke-linejoin="round" stroke-linecap="round" fill="none" class="colorStroke003149 svgStroke"></line>
        <line x1="521.78" x2="545.72" y1="153.89" y2="153.89" stroke="#002c49" stroke-linejoin="round" stroke-linecap="round" fill="none" class="colorStroke003149 svgStroke"></line>
        <line x1="554.24" x2="578.18" y1="153.89" y2="153.89" stroke="#002c49" stroke-linejoin="round" stroke-linecap="round" fill="none" class="colorStroke003149 svgStroke"></line>
        <line x1="586.71" x2="610.65" y1="153.89" y2="153.89" stroke="#002c49" stroke-linejoin="round" stroke-linecap="round" fill="none" class="colorStroke003149 svgStroke"></line>
        <line x1="521.78" x2="622.55" y1="164.45" y2="164.45" stroke="#002c49" stroke-linejoin="round" stroke-linecap="round" fill="none" class="colorStroke003149 svgStroke"></line>
        <line x1="521.78" x2="567.92" y1="175.02" y2="175.02" stroke="#002c49" stroke-linejoin="round" stroke-linecap="round" fill="none" class="colorStroke003149 svgStroke"></line>
        <line x1="575.6" x2="621.75" y1="175.02" y2="175.02" stroke="#002c49" stroke-linejoin="round" stroke-linecap="round" fill="none" class="colorStroke003149 svgStroke"></line>
        <line x1="447.86" x2="509.58" y1="226.17" y2="226.17" stroke="#002c49" stroke-linejoin="round" stroke-linecap="round" fill="none" class="colorStroke003149 svgStroke"></line>
        <line x1="517.92" x2="576.1" y1="226.17" y2="226.17" stroke="#002c49" stroke-linejoin="round" stroke-linecap="round" fill="none" class="colorStroke003149 svgStroke"></line>
        <line x1="486.3" x2="548.01" y1="239.24" y2="239.24" stroke="#002c49" stroke-linejoin="round" stroke-linecap="round" fill="none" class="colorStroke003149 svgStroke"></line>
        <line x1="558.43" x2="620.14" y1="239.24" y2="239.24" stroke="#002c49" stroke-linejoin="round" stroke-linecap="round" fill="none" class="colorStroke003149 svgStroke"></line>
        <line x1="447.86" x2="477.11" y1="239.24" y2="239.24" stroke="#002c49" stroke-linejoin="round" stroke-linecap="round" fill="none" class="colorStroke003149 svgStroke"></line>
        <line x1="447.86" x2="512.95" y1="252.3" y2="252.3" stroke="#002c49" stroke-linejoin="round" stroke-linecap="round" fill="none" class="colorStroke003149 svgStroke"></line>
        <line x1="521.62" x2="586.71" y1="252.3" y2="252.3" stroke="#002c49" stroke-linejoin="round" stroke-linecap="round" fill="none" class="colorStroke003149 svgStroke"></line>
        <line x1="447.86" x2="543.01" y1="265.37" y2="265.37" stroke="#002c49" stroke-linejoin="round" stroke-linecap="round" fill="none" class="colorStroke003149 svgStroke"></line>
        <line x1="447.86" x2="494.01" y1="278.44" y2="278.44" stroke="#002c49" stroke-linejoin="round" stroke-linecap="round" fill="none" class="colorStroke003149 svgStroke"></line>
        <line x1="557.2" x2="603.35" y1="265.37" y2="265.37" stroke="#002c49" stroke-linejoin="round" stroke-linecap="round" fill="none" class="colorStroke003149 svgStroke"></line>
        <line x1="592.01" x2="621.75" y1="213.1" y2="213.1" stroke="#002c49" stroke-linejoin="round" stroke-linecap="round" fill="none" class="colorStroke003149 svgStroke"></line>
        <line x1="582.77" x2="610.8" y1="226.17" y2="226.17" stroke="#002c49" stroke-linejoin="round" stroke-linecap="round" fill="none" class="colorStroke003149 svgStroke"></line>
      </g>
      <g fill="#000000" class="color000000 svgShape">
        <rect width="135.98" height="91.27" x="287.52" y="104.94" rx="4.38" ry="4.38" stroke="#002c49" stroke-linejoin="round" stroke-linecap="round" fill="#9ecbda" class="color669cbd svgShape colorStroke003149 svgStroke"></rect>
        <line x1="301.82" x2="415.95" y1="185.18" y2="185.18" stroke-linejoin="round" fill="none" stroke="#ffffff" class="colorStrokeffffff svgStroke"></line>
        <g fill="#000000" class="color000000 svgShape">
          <rect width="1.75" height="6.23" x="293.54" y="182.12" fill="#ffffff" class="colorffffff svgShape"></rect>
          <rect width="1.75" height="6.23" x="297.24" y="182.12" fill="#ffffff" class="colorffffff svgShape"></rect>
        </g>
        <circle cx="355.52" cy="146.44" r="21.03" stroke="#002c49" fill="none" stroke-miterlimit="10" class="colorStroke003149 svgStroke"></circle>
        <path d="M365.52,145.57l-13.68-7.9c-.67-.38-1.5.1-1.5.87v15.8c0,.77.83,1.25,1.5.87l13.68-7.9c.67-.38.67-1.35,0-1.73Z" stroke="#002c49" stroke-linejoin="round" stroke-linecap="round" fill="#ffffff" class="colorffffff svgShape colorStroke003149 svgStroke"></path>
        <circle cx="311.62" cy="185.18" r="1.79" fill="#002c49" class="color003149 svgShape"></circle>
      </g>
    </g>
    <g fill="#000000" class="color000000 svgShape">
      <path d="M260.04,195.69s10.57-3.14,12.57-10.34c1.99-7.2-1.33-14.86-8.21-17.16,0,0,3-11.11-7.5-14.94-10.5-3.83-18.62,2.15-18.62,2.15,0,0-11.8-7.28-21.99,3.29,0,0-14.63-.92-11.65,14.17,0,0-9.5,6.37-2.15,19.08s7.5,21.3,7.5,21.3l50.04-17.55Z" stroke="#002c49" stroke-linejoin="round" stroke-linecap="round" fill="#002c49" class="color003149 svgShape colorStroke003149 svgStroke"></path>
      <g fill="#000000" class="color000000 svgShape">
        <rect width="26.83" height="29.72" x="243.24" y="629.54" transform="rotate(-1.24 255.521 642.31)" stroke="#002c49" stroke-linejoin="round" stroke-linecap="round" fill="#d6f3fd" class="colorfdf0d6 svgShape colorStroke003149 svgStroke"></rect>
        <path d="M274.67,651.44l17.74,14.15c1.23.98,2.68,1.63,4.23,1.89l14.3,2.43c3.81.65,6.13,4.6,4.78,8.22-1.48,3.94-4.44,8.37-10.38,10.15-11.69,3.5-59.21-5.52-63.09-6.87-2.27-.78-5.01-3.19-6.9-5.06-1.42-1.4-1.99-3.44-1.51-5.37l5.28-21.2,2.06-.8c1.35-.52,2.9.25,3.19,1.66.4,1.97,1.97,4.45,6.95,5.93,5.77,1.71,11.85-2.06,15.58-5.1,2.25-1.84,5.48-1.85,7.76-.04Z" stroke="#002c49" stroke-linejoin="round" stroke-linecap="round" fill="#35aeff" class="color25a18e svgShape colorStroke003149 svgStroke"></path>
        <path d="M312.6,681.02s-17.92,4.65-39.24,1.57c-21.33-3.08-37.63-10.34-37.63-10.34" stroke="#002c49" stroke-linejoin="round" stroke-linecap="round" fill="none" class="colorStroke003149 svgStroke"></path>
      </g>
      <g fill="#000000" class="color000000 svgShape">
        <polygon points="153.2 623.08 147.12 659.92 173.95 659.34 180.03 622.5 153.2 623.08" stroke="#002c49" stroke-linejoin="round" stroke-linecap="round" fill="#d6f3fd" class="colorfdf0d6 svgShape colorStroke003149 svgStroke"></polygon>
        <path d="M179.81,651.81l17.74,14.15c1.23.98,2.68,1.63,4.23,1.89l14.3,2.43c3.81.65,6.13,4.6,4.78,8.22-1.48,3.94-4.44,8.37-10.38,10.15-11.69,3.5-59.21-5.52-63.09-6.87-2.27-.78-5.01-3.19-6.9-5.06-1.42-1.4-1.99-3.44-1.51-5.37l5.28-21.2,2.06-.8c1.35-.52,2.9.25,3.19,1.66.4,1.97,1.97,4.45,6.95,5.93,5.77,1.71,11.85-2.06,15.58-5.1,2.25-1.84,5.48-1.85,7.76-.04Z" stroke="#002c49" stroke-linejoin="round" stroke-linecap="round" fill="#35aeff" class="color25a18e svgShape colorStroke003149 svgStroke"></path>
        <path d="M217.74,681.39s-17.92,4.65-39.24,1.57c-21.33-3.08-37.63-10.34-37.63-10.34" stroke="#002c49" stroke-linejoin="round" stroke-linecap="round" fill="none" class="colorStroke003149 svgStroke"></path>
      </g>
      <path d="M177.6,394.6h104.82l-4.6,148.95-4.6,92.4s-16.86,2.76-35.55,0l-11.95-159.98-40.76,161.21s-19.31,3.06-41.07,0l24.98-166.27s0-44.13,8.73-76.31Z" stroke="#002c49" stroke-linejoin="round" stroke-linecap="round" fill="#9ecbda" class="color669cbd svgShape colorStroke003149 svgStroke"></path>
      <line x1="225.71" x2="241.65" y1="475.97" y2="415.59" stroke="#002c49" fill="none" stroke-miterlimit="10" class="colorStroke003149 svgStroke"></line>
      <path d="M203.48,408.94s-7.11,19.64-25.58,27.3" stroke="#002c49" fill="none" stroke-miterlimit="10" class="colorStroke003149 svgStroke"></path>
      <path d="M177.9,404.25s49.34,6.44,99.91,0l-12.87-154.77h-67.73l-19.31,154.77Z" stroke="#002c49" stroke-linejoin="round" stroke-linecap="round" fill="#ffffff" class="colorffffff svgShape colorStroke003149 svgStroke"></path>
      <path d="M203.95,249.48s4.9,22.07,30.49,21.91c25.59-.15,26.36-21.91,26.36-21.91h-7.49c-2.21,0-4-1.79-4-4v-9.18s12.11-2.61,14.4-19c2.3-16.4-1.99-32.33-1.99-32.33,0,0-14.4,6.44-31.57-1.53,0,0-4.06,7.62-8.08,12.68-4.02,5.06-3.91,11.72-3.91,11.72h-2.3s1.03-11.03-6.21-12.87c-7.24-1.84-8.62,6.09-6.9,13.91,1.72,7.82,13.22,8.62,13.22,8.62l.33,27.94c.03,2.23-1.77,4.05-4,4.05h-8.36Z" stroke="#002c49" stroke-linejoin="round" stroke-linecap="round" fill="#d6f3fd" class="colorfdf0d6 svgShape colorStroke003149 svgStroke"></path>
      <path d="M249.31,236.3s-17.32,2.61-28.81-10.57c0,0,5.48,16.89,28.81,17.14v-6.57Z" stroke="#002c49" stroke-linejoin="round" stroke-linecap="round" fill="#002c49" class="color003149 svgShape colorStroke003149 svgStroke"></path>
      <g fill="#000000" class="color000000 svgShape">
        <path d="M239.71 219.58c.27.04 4.55 2.89 9.25 2.94M246.85 203.93l3.36 6.59c.59 1.16.13 2.57-1.03 3.16l-1.69.86" stroke="#002c49" stroke-linejoin="round" stroke-linecap="round" fill="none" class="colorStroke003149 svgStroke"></path>
        <ellipse cx="237.07" cy="200.94" rx="2.43" ry="1.31" transform="rotate(-89.35 237.06 200.944)" fill="#002c49" class="color003149 svgShape"></ellipse>
        <ellipse cx="254.09" cy="201.14" rx="2.43" ry="1.31" transform="rotate(-89.35 254.079 201.14)" fill="#002c49" class="color003149 svgShape"></ellipse>
        <path d="M240.17 192.42s-5.43-.72-8.83 2.28M256.5 192.72s-3.57-1.44-7.24-.41" stroke="#002c49" stroke-linejoin="round" stroke-linecap="round" fill="none" class="colorStroke003149 svgStroke"></path>
      </g>
      <g fill="#000000" class="color000000 svgShape">
        <path d="M212.77,207.04s.62-4.75-2.37-6.64c-2.99-1.89-6.16,1.54-6.16,1.54" stroke="#002c49" stroke-linejoin="round" stroke-linecap="round" fill="none" class="colorStroke003149 svgStroke"></path>
        <path d="M209.08,210.86s-5.07-7.64,3.36-7.62" stroke="#002c49" stroke-linejoin="round" stroke-linecap="round" fill="none" class="colorStroke003149 svgStroke"></path>
      </g>
      <path d="M248.39,412.3s23.91,1.61,37.7,0l3.68-105.97h19.77l-19.45-44.96c-3.12-7.22-10.24-11.9-18.11-11.9h-19.91s-5.22,85.2-3.68,162.82Z" stroke="#002c49" stroke-linejoin="round" stroke-linecap="round" fill="#002c49" class="color003149 svgShape colorStroke003149 svgStroke"></path>
      <path d="M212.43,249.48h-24.5c-8.11,0-15.33,5.15-17.97,12.82l-30.1,84.84c-6.3,17.75,9.36,35.5,27.76,31.47l6.76-1.48-2.76,35.88c16.55,2.55,42.98,0,42.98,0,0,0-1.38-71.28,1.15-97.03,2.53-25.74-3.32-66.51-3.32-66.51Z" stroke="#002c49" stroke-linejoin="round" stroke-linecap="round" fill-rule="evenodd" fill="#002c49" class="color003149 svgShape colorStroke003149 svgStroke"></path>
      <line x1="240.75" x2="259.96" y1="300.48" y2="321.05" stroke="#002c49" stroke-linejoin="round" stroke-linecap="round" fill="#fdf0d6" stroke-width="3px" class="colorStroke003149 svgStroke"></line>
      <path d="M176.68,340.81s-9.96,6.74-10.73,13.79" stroke-linejoin="round" stroke-linecap="round" fill="none" stroke="#ffffff" class="colorStrokeffffff svgStroke"></path>
      <g fill="#000000" class="color000000 svgShape">
        <path d="M219.2,331.25l12.25-4.15,16.04-13.83c1.97-1.7,4.63-2.34,7.15-1.72,4.87,1.19,12.67,3.88,13.78,4.45,1.63.85,2.57,2.96,2.57,2.96,0,0,2.64,2.21.63,4.23,0,0-.91,2.01-4,1.95-1.87-.03-5.42-.06-7.92-.08-1.77-.01-3.43.85-4.44,2.3-2.5,3.61-6.56,10.63-7.73,12.54-1.99,3.23-9.27,6.08-13.16,7.21-3.42.99-8.67,1.54-8.67,1.54l-6.51-17.39Z" stroke="#002c49" stroke-linejoin="round" stroke-linecap="round" fill="#d6f3fd" class="colorfdf0d6 svgShape colorStroke003149 svgStroke"></path>
        <path d="M271.63,323.18l-11.5-4.07c-.76-.27-1.59-.24-2.32.09l-6.95,3.06" stroke="#002c49" stroke-linejoin="round" stroke-linecap="round" fill="none" class="colorStroke003149 svgStroke"></path>
        <path d="M248.92,318.83l8.75-3.34c.66-.25,1.39-.27,2.07-.06l11.26,3.52" stroke="#002c49" stroke-linejoin="round" stroke-linecap="round" fill="none" class="colorStroke003149 svgStroke"></path>
        <line x1="247.48" x2="256.26" y1="315.88" y2="311.94" stroke="#002c49" stroke-linejoin="round" stroke-linecap="round" fill="none" class="colorStroke003149 svgStroke"></line>
      </g>
      <path d="M220.5,328.3s6.57,13.77,8.43,25.39l-38.62,18.85-6.74-32.49,36.93-11.75Z" stroke="#002c49" stroke-linejoin="round" stroke-linecap="round" fill-rule="evenodd" fill="#002c49" class="color003149 svgShape colorStroke003149 svgStroke"></path>
      <path d="M174.38,377.13l4.04-.79c6.17-1.2,12.14-3.25,17.74-6.09l32.77-16.57s-2.41-14.92-8.43-25.39l-43.83,12.51,22.37-49.96" stroke-linejoin="round" stroke-linecap="round" fill="none" stroke="#ffffff" class="colorStrokeffffff svgStroke"></path>
      <polygon points="259.37 283.8 314.36 283.8 303.1 363.34 248.11 363.34 259.37 283.8" stroke="#002c49" stroke-linejoin="round" stroke-linecap="round" fill="#35aeff" class="color25a18e svgShape colorStroke003149 svgStroke"></polygon>
      <path id="Path-289" d="M305.49,348.64l6.46-7.13c2.75-3.28,4.61-7.28,5.74-11.26l.06-.22c1.06-3.71.46-7.7-1.65-10.94-2.2-3.37-16.22-8.18-16.22-8.18-.8-.22-1.39-.34-1.79.24-.23.34-.26.83-.26.85.03,2.15,1.55,4,3.59,4.68,2.93.98,8.68,2.85,9.94,5.51l.47,1h0l-1.24-.81c-3.38-2.21-7.34-3.39-11.38-3.39h-3.79c-.78,0-1.41.63-1.41,1.41,0,.24.06.48.18.69.73,1.31,2.09,2.14,3.59,2.21l1.94.09c2.8.13,5.45,1.29,7.44,3.26l.91.9h0c-2.62-1.42-5.58-2.08-8.56-1.9l-5.57.33c-.84.05-1.48.77-1.43,1.6.02.27.11.54.26.77.94,1.38,2.51,2.21,4.19,2.21h1.59c2.78,0,5.5.84,7.79,2.4l.52.36h0l-2.85-.25c-2.16-.19-4.33-.2-6.49-.02l-1.73.14c-.77.06-1.35.74-1.29,1.52,0,.04,0,.07.01.11.14.87.89,1.5,1.77,1.5h1.48c1.98,0,3.93.42,5.73,1.23l3.36,1.22-1.4,9.87Z" stroke="#002c49" stroke-linejoin="round" stroke-linecap="round" fill-rule="evenodd" fill="#d6f3fd" class="colorfdf0d6 svgShape colorStroke003149 svgStroke"></path>
    </g>
    <g fill="#000000" class="color000000 svgShape">
      <path d="M786.27,254.37s8.82-13.91,11.47-24.49c2.66-10.58-5.38-18.77-13.16-20.36,0,0-10.55-9.98-31.66-7.08-23.32,3.2-10.57,43.86-10.57,43.86l43.92,8.08Z" stroke="#002c49" stroke-linejoin="round" stroke-linecap="round" fill="#002c49" class="color003149 svgShape colorStroke003149 svgStroke"></path>
      <g fill="#000000" class="color000000 svgShape">
        <rect width="26.13" height="23.6" x="736.23" y="638.23" transform="rotate(-88.76 749.343 650.03)" stroke="#002c49" stroke-linejoin="round" stroke-linecap="round" fill="#d6f3fd" class="colorfdf0d6 svgShape colorStroke003149 svgStroke"></rect>
        <path d="M733.45,656.22l-15.6,12.44c-1.08.86-2.36,1.43-3.72,1.67l-12.58,2.13c-3.35.57-5.39,4.04-4.2,7.23,1.3,3.46,3.9,7.36,9.12,8.93,10.28,3.07,52.06-4.86,55.48-6.04,1.99-.69,4.4-2.81,6.06-4.45,1.24-1.23,1.75-3.02,1.33-4.72l-4.64-18.64-1.82-.7c-1.18-.46-2.55.22-2.8,1.46-.35,1.73-1.73,3.92-6.11,5.21-5.08,1.5-10.42-1.81-13.7-4.49-1.98-1.62-4.82-1.63-6.82-.03Z" stroke="#002c49" stroke-linejoin="round" stroke-linecap="round" fill="#35aeff" class="color25a18e svgShape colorStroke003149 svgStroke"></path>
        <path d="M700.1,682.23s15.75,4.09,34.51,1.38c18.76-2.71,33.09-9.09,33.09-9.09" stroke="#002c49" stroke-linejoin="round" stroke-linecap="round" fill="none" class="colorStroke003149 svgStroke"></path>
      </g>
      <g fill="#000000" class="color000000 svgShape">
        <polygon points="840.26 631.29 845.61 663.68 822.02 663.17 816.67 630.78 840.26 631.29" stroke="#002c49" stroke-linejoin="round" stroke-linecap="round" fill="#d6f3fd" class="colorfdf0d6 svgShape colorStroke003149 svgStroke"></polygon>
        <path d="M816.87,656.55l-15.6,12.44c-1.08.86-2.36,1.43-3.72,1.67l-12.58,2.13c-3.35.57-5.39,4.04-4.2,7.23,1.3,3.46,3.9,7.36,9.12,8.93,10.28,3.07,52.06-4.86,55.48-6.04,1.99-.69,4.4-2.81,6.06-4.45,1.24-1.23,1.75-3.02,1.33-4.72l-4.64-18.64-1.82-.7c-1.18-.46-2.55.22-2.8,1.46-.35,1.73-1.73,3.92-6.11,5.21-5.08,1.5-10.42-1.81-13.7-4.49-1.98-1.62-4.82-1.63-6.82-.03Z" stroke="#002c49" stroke-linejoin="round" stroke-linecap="round" fill="#35aeff" class="color25a18e svgShape colorStroke003149 svgStroke"></path>
        <path d="M783.52,682.56s15.75,4.09,34.51,1.38,33.09-9.09,33.09-9.09" stroke="#002c49" stroke-linejoin="round" stroke-linecap="round" fill="none" class="colorStroke003149 svgStroke"></path>
      </g>
      <path d="M818.81,430.37h-92.17s4.04,130.98,4.04,130.98l4.04,81.26s14.82,2.43,31.26,0l10.51-140.68,35.84,141.76s16.98,2.7,36.11,0l-21.96-146.21s0-38.81-7.68-67.11Z" stroke="#002c49" stroke-linejoin="round" stroke-linecap="round" fill="#002c49" class="color003149 svgShape colorStroke003149 svgStroke"></path>
      <line x1="776.5" x2="762.49" y1="501.92" y2="448.83" stroke-linejoin="round" stroke-linecap="round" fill="none" stroke="#ffffff" class="colorStrokeffffff svgStroke"></line>
      <g fill="#000000" class="color000000 svgShape">
        <path d="M802.91,502.95h76.63c2.83,0,5.13,2.3,5.13,5.13v43.6h-86.88v-43.6c0-2.83,2.3-5.13,5.13-5.13Z" transform="rotate(-180 841.23 527.31)" stroke="#002c49" stroke-linejoin="round" stroke-linecap="round" fill="#ffffff" class="colorffffff svgShape colorStroke003149 svgStroke"></path>
        <rect width="86.88" height="27.39" x="797.79" y="494.17" rx="4.61" ry="4.61" transform="rotate(-180 841.23 507.865)" stroke="#002c49" stroke-linejoin="round" stroke-linecap="round" fill="#9ecbda" class="color669cbd svgShape colorStroke003149 svgStroke"></rect>
        <path d="M822.99,494.17h3.08s0-11.32,0-11.32c0-.57.46-1.03,1.03-1.03h28.28c.57,0,1.03.46,1.03,1.03v11.32s3.08,0,3.08,0v-11.32c0-2.26-1.84-4.1-4.1-4.1h-28.28c-2.26,0-4.1,1.84-4.1,4.1v11.32Z" stroke="#002c49" stroke-linejoin="round" stroke-linecap="round" fill="#9ecbda" class="color669cbd svgShape colorStroke003149 svgStroke"></path>
        <rect width="18.12" height="6.71" x="832.17" y="518.21" rx="2" ry="2" transform="rotate(180 841.23 521.565)" stroke="#002c49" stroke-linejoin="round" stroke-linecap="round" fill="#ffffff" class="colorffffff svgShape colorStroke003149 svgStroke"></rect>
      </g>
      <g fill="#000000" class="color000000 svgShape">
        <path d="M828.79,478.55c.07-3.12,1.85-8.97,1.85-8.97l.71-12.61,20.4-.99v7.23s2.41,6.66,1.84,13.88c-.57,7.23-1.84,9.35-1.84,9.35,0,0-1.1,2.13-3.44.64,0,0-1.81,1.97-4.62.85,0,0-2.33,1.54-5.14.34,0,0-3.45.93-4.51-.63-1.06-1.56-.92-3.97-.92-3.97l.09-4.93-4.41-.19Z" stroke="#002c49" stroke-linejoin="round" stroke-linecap="round" fill="#d6f3fd" class="colorfdf0d6 svgShape colorStroke003149 svgStroke"></path>
        <line x1="848.31" x2="848.31" y1="487.08" y2="482.83" stroke="#002c49" stroke-linejoin="round" stroke-linecap="round" fill="none" class="colorStroke003149 svgStroke"></line>
        <line x1="843.68" x2="843.68" y1="487.93" y2="483.11" stroke="#002c49" stroke-linejoin="round" stroke-linecap="round" fill="none" class="colorStroke003149 svgStroke"></line>
        <line x1="838.51" x2="838.51" y1="488.27" y2="483.68" stroke="#002c49" stroke-linejoin="round" stroke-linecap="round" fill="none" class="colorStroke003149 svgStroke"></line>
      </g>
      <g id="Group-6-Copy" fill="#000000" class="color000000 svgShape">
        <path d="M611.81,261.89c.52-.56,1.39-.59,1.94-.07l21.97,20.35c.53.49,1.06.99,1.58,1.5l28.32,28.11-15.43,16.49-11.77-16.22c-3.44,2.08-9.76,1.03-15.58-7.92-.08.04-.16.08-.25.11-1.5.57-3.17-.18-3.74-1.68l-2.12-5.57c-.78-2.05.14-4.35,2.12-5.3-.7-2.19-.22-4.02,1.44-5.5-.81-2.51,0-4.5,2.44-5.97l-10.23-13.27c-.96-1.24-1.34-2.84-1.04-4.38.05-.25.17-.48.34-.67Z" stroke="#002c49" stroke-linejoin="round" stroke-linecap="round" fill-rule="evenodd" fill="#d6f3fd" class="colorfdf0d6 svgShape colorStroke003149 svgStroke"></path>
        <path d="M618.87,291.68l6.17,8.76c.54.76,1.59.94,2.35.41.05-.03.1-.07.14-.11.82-.72,1.02-1.92.48-2.87l-1.89-3.31h0" stroke="#002c49" stroke-linejoin="round" stroke-linecap="round" fill="none" class="colorStroke003149 svgStroke"></path>
        <line id="Path-23" x1="620.22" x2="623.33" y1="285.8" y2="290.25" stroke="#002c49" stroke-linejoin="round" stroke-linecap="round" fill="none" class="colorStroke003149 svgStroke"></line>
        <line id="Path-26" x1="622.74" x2="626.32" y1="280.21" y2="285.49" stroke="#002c49" stroke-linejoin="round" stroke-linecap="round" fill="none" class="colorStroke003149 svgStroke"></line>
        <path d="M626.12,294.56l1.29,2.17c.48.81,1.52,1.07,2.33.59.08-.05.15-.1.22-.16.9-.75,1.16-2.02.62-3.06l-1.26-2.47h0" stroke="#002c49" stroke-linejoin="round" stroke-linecap="round" fill="none" class="colorStroke003149 svgStroke"></path>
        <line id="Path-25" x1="622.88" x2="620.51" y1="304.17" y2="294.45" stroke="#002c49" stroke-linejoin="round" stroke-linecap="round" fill="none" class="colorStroke003149 svgStroke"></line>
        <path id="Path-9" d="M634.65,281.96h-.28c-3.62.09-6.95,1.97-8.9,5.02l-4.16,6.54c-.4.62-.21,1.45.41,1.84.29.18.63.25.97.18,1.99-.38,3.82-1.33,5.29-2.72l3.71-3.53h0l.72,2.26c-.78,6.82,1.58,11.53,7.1,14.15" stroke="#002c49" stroke-linejoin="round" stroke-linecap="round" fill="#d6f3fd" class="colorfdf0d6 svgShape colorStroke003149 svgStroke"></path>
      </g>
      <path d="M796.06,442.99s6.25,17.27,22.49,24" stroke-linejoin="round" stroke-linecap="round" fill="none" stroke="#ffffff" class="colorStrokeffffff svgStroke"></path>
      <path d="M823.25,439.97s-47.32,10.77-99.46,0l2.55-88.97-24.3,23.43c-3.92,3.78-10.19,3.6-13.89-.4l-49.64-53.64s7.3-13.32,20.26-19.91l31.45,33.79,26.19-35.47c5.04-6.83,13.03-10.86,21.52-10.86h71.78c13.24,0,24.83,8.92,28.22,21.72l20.16,71.56c1,3.53,1.41,7.21,1.23,10.88l-3.34,68.4s-10.2,3.4-28.05,0l1.28-69.49-11.05-33.79,5.1,82.74Z" stroke="#002c49" stroke-linejoin="round" stroke-linecap="round" fill="#9ecbda" class="color669cbd svgShape colorStroke003149 svgStroke"></path>
      <path d="M829.2,391.02s6.59-1.49,11.33-1.06" stroke="#002c49" stroke-linejoin="round" stroke-linecap="round" fill="none" class="colorStroke003149 svgStroke"></path>
      <rect width="33.3" height="8.08" x="776.28" y="395.94" transform="rotate(175.73 792.935 399.97)" stroke="#002c49" stroke-linejoin="round" stroke-linecap="round" fill="none" class="colorStroke003149 svgStroke"></rect>
      <rect width="20.05" height="8.08" x="725.42" y="394.65" transform="rotate(-172.62 735.456 398.677)" stroke="#002c49" stroke-linejoin="round" stroke-linecap="round" fill="none" class="colorStroke003149 svgStroke"></rect>
      <line x1="818.15" x2="811.06" y1="357.23" y2="317.56" stroke="#002c49" stroke-linejoin="round" stroke-linecap="round" fill="none" class="colorStroke003149 svgStroke"></line>
      <line x1="726.34" x2="732.29" y1="351" y2="319.4" stroke="#002c49" stroke-linejoin="round" stroke-linecap="round" fill="none" class="colorStroke003149 svgStroke"></line>
      <path d="M791.8,287.95s-1.91,32.37-27.2,49.45c0,0-19.55-13.32-17.64-49.45l6.08-6.08c1.14-1.14,2.69-1.78,4.3-1.78h23.24c1.48,0,2.91.54,4.02,1.52l7.2,6.35Z" stroke="#002c49" stroke-linejoin="round" stroke-linecap="round" fill="#ffffff" class="colorffffff svgShape colorStroke003149 svgStroke"></path>
      <path d="M783.51,289.23s-4.75,11.48-16.93,12.04c-12.18.57-13.03-13.32-13.03-13.32v-9.35s-11.62-1.42-13.32-17.28c-1.7-15.87,5.67-32.44,5.67-32.44,0,0,13.46,2.98,26.35,0,0,0-.11,2.66,6.27,11.16,6.38,8.5,4.99,12.54,4.99,12.54h2.02s-.32-9.32,3.51-12.22,9.85,1.49,9.28,8.93c-.57,7.44-7.15,11.62-12.18,11.69l-2.62,28.26Z" stroke="#002c49" stroke-linejoin="round" stroke-linecap="round" fill="#d6f3fd" class="colorfdf0d6 svgShape colorStroke003149 svgStroke"></path>
      <path d="M753.54,278.6s15.19,1.59,27.2-7.86c0,0-5.53,12.75-27.2,14.88v-7.01Z" stroke="#002c49" stroke-linejoin="round" stroke-linecap="round" fill="#002c49" class="color003149 svgShape colorStroke003149 svgStroke"></path>
      <path d="M749.96,314.69c4.21-7.13,16.61-13.42,16.61-13.42,0,0,11.62,3.75,16.93,14.56" stroke="#002c49" stroke-linejoin="round" stroke-linecap="round" fill="none" class="colorStroke003149 svgStroke"></path>
      <path d="M797.02 289.37s1.7 15.44-5.1 28.19l-6.59-.71 3.61 6.23s-8.11 14.31-24.49 26.49c-15.3-13.74-19.13-26.49-19.13-26.49l3.61-6.23-6.59.71c-6.8-12.75-5.1-28.19-5.1-28.19M764.45 349.58s-6.09 44.77-1.31 95" stroke="#002c49" stroke-linejoin="round" stroke-linecap="round" fill="none" class="colorStroke003149 svgStroke"></path>
      <g fill="#000000" class="color000000 svgShape">
        <path d="M762.16 266.03c-.28.02-4.9 2.64-9.74 2.34M755.96 249.39l-3.95 6.53c-.69 1.15-.32 2.64.82 3.33l1.68 1.01" stroke="#002c49" stroke-linejoin="round" stroke-linecap="round" fill="none" class="colorStroke003149 svgStroke"></path>
        <ellipse cx="766.25" cy="247.04" rx="2.51" ry="1.35" transform="rotate(-86.53 766.271 247.025)" fill="#002c49" class="color003149 svgShape"></ellipse>
        <ellipse cx="748.71" cy="245.98" rx="2.51" ry="1.35" transform="rotate(-86.53 748.733 245.967)" fill="#002c49" class="color003149 svgShape"></ellipse>
        <path d="M763.7 238.04s5.64-.33 8.92 3.01M746.86 237.13s3.78-1.21 7.49.11" stroke="#002c49" stroke-linejoin="round" stroke-linecap="round" fill="none" class="colorStroke003149 svgStroke"></path>
      </g>
      <g fill="#000000" class="color000000 svgShape">
        <path d="M788.21,250.99s-.58-4.5,2.25-6.29,5.83,1.46,5.83,1.46" stroke="#002c49" stroke-linejoin="round" stroke-linecap="round" fill="none" class="colorStroke003149 svgStroke"></path>
        <path d="M791.72,254.62s4.81-7.24-3.18-7.23" stroke="#002c49" stroke-linejoin="round" stroke-linecap="round" fill="none" class="colorStroke003149 svgStroke"></path>
      </g>
      <line x1="690.21" x2="701.48" y1="334.28" y2="346.79" stroke="#002c49" stroke-linejoin="round" stroke-linecap="round" fill="none" class="colorStroke003149 svgStroke"></line>
    </g>
  </g>
  <line x1="106.52" x2="917.48" y1="689.08" y2="689.08" stroke="#002c49" fill="none" stroke-miterlimit="10" stroke-width="5px" class="colorStroke003149 svgStroke"></line>
</svg>
